<?xml version="1.0" encoding="UTF-8" standalone="no" ?>
<!DOCTYPE svg PUBLIC "-//W3C//DTD SVG 1.1//EN" "http://www.w3.org/Graphics/SVG/1.1/DTD/svg11.dtd">
<svg xmlns="http://www.w3.org/2000/svg" xmlns:xlink="http://www.w3.org/1999/xlink" version="1.1" width="1080" height="1080" viewBox="0 0 1080 1080" xml:space="preserve">
<desc>Created with Fabric.js 5.2.4</desc>
<defs>
</defs>
<g transform="matrix(1 0 0 1 540 540)" id="1e73901d-6626-48c1-9bbf-4e4a4bd362b5"  >
</g>
<g transform="matrix(1 0 0 1 540 540)" id="26731e0f-1fdf-43fd-8c96-13bdb201063b"  >
<rect style="stroke: none; stroke-width: 1; stroke-dasharray: none; stroke-linecap: butt; stroke-dashoffset: 0; stroke-linejoin: miter; stroke-miterlimit: 4; fill: rgb(255,255,255); fill-rule: nonzero; opacity: 1; visibility: hidden;" vector-effect="non-scaling-stroke"  x="-540" y="-540" rx="0" ry="0" width="1080" height="1080" />
</g>
<g transform="matrix(2.57 0 0 2.57 533.17 445.75)"  >
<path style="stroke: rgb(180,153,134); stroke-width: 2; stroke-dasharray: none; stroke-linecap: butt; stroke-dashoffset: 0; stroke-linejoin: miter; stroke-miterlimit: 4; fill: none; fill-rule: nonzero; opacity: 1;" vector-effect="non-scaling-stroke"  transform=" translate(-207.46, -167.44)" d="M 158.94 144.29 L 115.22999999999999 154.25 Q 113.02999999999999 154.76 113.79999999999998 156.89 L 125.88999999999999 190.21999999999997 C 126.20407106119248 191.09126874197185 125.96262352507243 192.06101704278186 125.27999999999999 192.66999999999996 Q 119.76999999999998 197.57999999999996 119.88999999999999 204.52999999999997 Q 119.98999999999998 210.94999999999996 123.58999999999999 215.18999999999997 Q 127.69999999999999 220.02999999999997 135.51 219.24999999999997 C 136.05336287621506 219.1964364432876 136.57101473544313 219.53332098659476 136.76999999999998 220.06999999999996 L 143.82 238.94999999999996 C 144.0370238922183 239.54160709354906 144.69577328547098 239.8510866742718 145.31 239.64999999999995 L 175.61 229.62999999999994 C 175.91833374549785 229.52869732146365 176.25378280426298 229.57293236217996 176.52 229.74999999999994 L 206.08 249.46999999999994 Q 207.55 250.44999999999993 208.99 249.48999999999995 L 238.57 229.69999999999996 C 238.84212962065797 229.51699351161267 239.17838281893023 229.4689573404309 239.48 229.56999999999996 L 268.98 239.39999999999998 Q 270.93 240.04999999999998 271.61 238.21999999999997 L 278.34000000000003 219.94999999999996 C 278.51679006349775 219.45909441649394 278.98086137359957 219.1469756592573 279.47 219.18999999999997 Q 290.75 220.09999999999997 294.09000000000003 210.43999999999997 Q 297.53000000000003 200.46999999999997 289.74 192.33999999999997 C 289.3468933159202 191.92261089937946 289.21583551304286 191.32899614517015 289.40000000000003 190.79999999999998 L 301.50000000000006 156.58999999999997 C 301.76604701655475 155.84596628943257 301.4205015162316 155.0280294722119 300.71000000000004 154.71999999999997 Q 298.81000000000006 153.88999999999996 297.48 153.58999999999997 Q 277.19 149.00999999999996 255.92000000000002 144.07999999999998 C 255.67225937852888 144.01982221678148 255.49839954127327 143.80042766024462 255.50000000000003 143.54999999999998 Q 255.50000000000003 140.99999999999997 255.59000000000003 138.24999999999997 Q 256.27000000000004 117.33999999999997 243.87000000000003 102.49999999999997 Q 237.27000000000004 94.60999999999997 228.44000000000003 90.00999999999998 Q 218.77000000000004 84.96999999999997 208.00000000000003 84.74999999999997 Q 192.15000000000003 84.41999999999997 183.09000000000003 97.89999999999998 C 182.9097444027526 98.16414953083246 182.63546987675392 98.35293589288352 182.32000000000002 98.42999999999998 Q 172.24 100.93999999999998 166.56000000000003 109.05999999999997 Q 159.48000000000002 119.18999999999997 160.03000000000003 132.24999999999997 Q 160.27000000000004 137.99999999999997 159.51000000000002 143.69999999999996 C 159.46789429326216 143.98921110687758 159.240773482855 144.2243010685271 158.94000000000003 144.28999999999996" stroke-linecap="round" />
</g>
<g transform="matrix(2.57 0 0 2.57 533.33 443.31)"  >
<path style="stroke: rgb(192,225,226); stroke-width: 2; stroke-dasharray: none; stroke-linecap: butt; stroke-dashoffset: 0; stroke-linejoin: miter; stroke-miterlimit: 4; fill: none; fill-rule: nonzero; opacity: 1;" vector-effect="non-scaling-stroke"  transform=" translate(-207.52, -166.49)" d="M 146.66 108.41 Q 131.75 124.28999999999999 126.5 144.72 C 126.4277012200132 145.00184507367018 126.50641009740494 145.30103236353028 126.70804349399563 145.5108125640236 C 126.90967689058631 145.72059276451697 127.20551367728275 145.81108429689002 127.49 145.75 L 153.76 140 C 154.1710339808104 139.90977836636392 154.4751032666835 139.5651665090411 154.51 139.15 Q 154.89 134.88 154.85999999999999 130.5 Q 154.76999999999998 115.46000000000001 164.05999999999997 103.81 Q 168.52999999999997 98.21000000000001 175.54999999999998 95.07000000000001 Q 175.64999999999998 95.03 177.35 94.4 Q 179.62 93.57000000000001 181.19 91.69000000000001 Q 183.92 88.42000000000002 186.92 85.91000000000001 Q 188.11999999999998 84.91000000000001 186.55999999999997 84.99000000000001 Q 184.43999999999997 85.09 182.70999999999998 85.64000000000001 Q 161.70999999999998 92.37000000000002 146.65999999999997 108.41000000000001 M 255.54 97.22 Q 247.03 91.21 237.32999999999998 87.39 Q 235.85999999999999 86.81 235.94 87.7 C 235.96508887116133 87.97162439676472 236.16044887169548 88.25913534094707 236.47 88.48 Q 260.87 106.25 260.75 137.89 Q 260.74 139.72 262.52 140.14 Q 272.85999999999996 142.57 282.75 144.75 Q 286.2 145.51 288.19 145.46 C 288.3100857782305 145.45945809340552 288.42247876512687 145.40094447144017 288.49473272714283 145.3013511724452 C 288.5669866891588 145.20175787345025 288.5910588779643 145.0721708478264 288.56 144.95000000000002 Q 280.74 115.05000000000001 255.54 97.22000000000003 M 190.62 245.61 Q 183.6 240.56 175.68 235.64000000000001 C 175.21475213237153 235.3562645587425 174.57146827719467 235.32668828953896 173.94 235.56 L 168.75 237.5 Q 166.06 238.51 168.31 239.69 Q 179.28 245.43 191.71 247.85999999999999 Q 193.12 248.14 192.21 247.02999999999997 Q 191.64000000000001 246.33999999999997 190.62 245.60999999999999 M 247.22 237.9 L 240.81 235.51000000000002 C 240.40184728962677 235.35286864761764 239.9383691782588 235.40107037119992 239.56 235.64000000000001 Q 230.69 241.22000000000003 223.06 246.81 Q 222.63 247.13 222.63 247.48 C 222.63199054936908 247.60238621621662 222.70818084828002 247.7135687787358 222.83873929202696 247.78460793195106 C 222.9692977357739 247.8556470851663 223.14130892665602 247.87951533326984 223.31 247.85 Q 236.02 245.56 247.32 239.31 Q 248.79999999999998 238.49 247.22 237.9" stroke-linecap="round" />
</g>
<g transform="matrix(2.57 0 0 2.57 535.51 820.19)"  >
<path style="stroke: rgb(180,153,134); stroke-width: 2; stroke-dasharray: none; stroke-linecap: butt; stroke-dashoffset: 0; stroke-linejoin: miter; stroke-miterlimit: 4; fill: none; fill-rule: nonzero; opacity: 1;" vector-effect="non-scaling-stroke"  transform=" translate(-208.37, -313.13)" d="M 243.57 294.05 Q 243.01 296.01 241.19 296.44 Q 238.03 297.18 235.57999999999998 295.44 Q 233.39999999999998 293.87 232.69 291.09 Q 231.51 286.46999999999997 236.41 283.73999999999995 Q 239.97 281.75999999999993 242.69 283.80999999999995 Q 245.23 285.72999999999996 246.99 283.92999999999995 Q 247.35000000000002 283.55999999999995 247.77 283.36999999999995 Q 250.59 282.03999999999996 247.76000000000002 280.0199999999999 Q 238.79000000000002 273.62999999999994 231.46 279.4699999999999 Q 228.17000000000002 282.0899999999999 226.94 285.6499999999999 Q 225.56 289.62999999999994 227 293.74999999999994 Q 229.16 299.90999999999997 234.68 301.72999999999996 Q 239.64000000000001 303.36999999999995 244.77 301.35999999999996 Q 252.08 298.47999999999996 252 289.11999999999995 C 251.994503388321 288.499867782068 251.4946686892465 288.0000330829935 250.88 287.99999999999994 L 239.31 288.04999999999995 C 238.99770164620193 288.0557712529292 238.71750352472006 288.23867836000767 238.59 288.52 Q 237.5 290.91999999999996 238.58 293.24 C 238.70733669483172 293.51371911906017 238.9936680704333 293.6863024139433 239.31 293.68 L 243.19 293.57 C 243.3107746973711 293.5657196450721 243.42638420125664 293.61914210771005 243.50139647684958 293.7138944558274 C 243.57640875244252 293.80864680394484 243.60187859512172 293.9334298317045 243.57 294.05 M 98.56 283.01 L 106.68 282.67 C 106.99781412205563 282.6576111709612 107.26387427187225 282.47217530896785 107.34 282.21000000000004 Q 107.97 279.98 107.65 277.69000000000005 C 107.60518199084652 277.3847774234288 107.3537126096666 277.158881199657 107.06 277.1600000000001 L 92.44 277.1600000000001 C 92.16044964068321 277.16042424696695 91.9307617220583 277.39452924095 91.92 277.69000000000005 Q 91.42 289.57000000000005 92.04 301.44000000000005 C 92.05545856861282 301.78453470725805 92.27931617894012 302.0566753315775 92.55000000000001 302.06000000000006 L 97.11000000000001 302.12000000000006 C 97.34491229694285 302.122674473632 97.57113943027034 302.0184993924301 97.73830557419545 301.8306722644243 C 97.90547171812057 301.6428451364186 97.99969717495081 301.38696112755565 98.00000000000001 301.12000000000006 L 98.00000000000001 293.38000000000005 C 98.00026394861452 292.8812954073084 98.42392413660426 292.4754735430235 98.95000000000002 292.47 L 106.56000000000002 292.36 C 106.87773129308296 292.3551195284759 107.13416000102549 292.1207967436319 107.14000000000001 291.83000000000004 L 107.18000000000002 287.6 C 107.1850240041661 287.30575394904963 106.94043460921593 287.0611645540995 106.63000000000002 287.05 L 98.81000000000003 286.69 C 98.46957316663335 286.6802475809061 98.19416671019921 286.4736927385805 98.17000000000003 286.21 L 97.99000000000002 283.54999999999995 C 97.97587353925167 283.2698600729085 98.2305307638299 283.02860586015015 98.56000000000002 283.00999999999993 M 118.31 293.83 Q 120.27 293.95 120.94 295.06 Q 122.61 297.82 124.03999999999999 300.64 Q 124.82 302.16999999999996 126.52999999999999 302.06 Q 132.14 301.7 137.51999999999998 302.34 Q 139.48999999999998 302.58 139.73999999999998 300.60999999999996 Q 140.12999999999997 297.46999999999997 142.82999999999998 297.61999999999995 Q 144.60999999999999 297.71999999999997 144.66 297.71999999999997 Q 146.75 297.66999999999996 148.82 297.88 C 149.13215592396188 297.91814118598967 149.40308300276737 298.11004786681025 149.54 298.39 L 150.98 301.34999999999997 C 151.11630221793402 301.6457242498589 151.38366109357418 301.84433370033446 151.67999999999998 301.86999999999995 L 156.57999999999998 302.28999999999996 C 156.82506980323112 302.31003995337755 157.06283309952363 302.20207807347253 157.2106500550347 302.00363887292343 C 157.35846701054575 301.80519967237433 157.3959232356152 301.543688770177 157.30999999999997 301.30999999999995 Q 153.58999999999997 291.28999999999996 150.29999999999998 282.0199999999999 Q 148.98 278.2999999999999 148.64 277.99999999999994 Q 147.17999999999998 276.71999999999997 143.48999999999998 277.3299999999999 Q 141.55999999999997 277.6499999999999 140.95 279.38999999999993 L 133.48999999999998 300.5199999999999 Q 132.67 302.8599999999999 131.48 300.81999999999994 L 127.30999999999999 293.61999999999995 C 126.9790830933023 293.06064737346804 127.1018864825566 292.3074532527083 127.60999999999999 291.78 Q 131.74999999999997 287.47999999999996 129.61999999999998 282.29999999999995 Q 127.53999999999998 277.24999999999994 121.99999999999997 277.10999999999996 Q 117.49999999999997 276.99999999999994 112.36999999999998 276.99999999999994 C 111.89339057296105 276.9999685146657 111.50547826824825 277.38342205725536 111.49999999999997 277.85999999999996 L 111.24999999999997 301.31999999999994 C 111.24356335206994 301.63476440837263 111.48122448868084 301.8988323379403 111.78999999999998 301.91999999999996 L 116.12999999999998 302.24999999999994 C 116.40750258100213 302.2722574980543 116.68330622280344 302.16733444634855 116.89568758278418 301.9587120484914 C 117.1080689427649 301.7500896506342 117.23929569069804 301.4551863902999 117.25999999999998 301.13999999999993 L 117.72999999999998 294.29999999999995 C 117.73678309739032 294.1650408892715 117.802263018125 294.03892839017595 117.91152447112917 293.9503889368795 C 118.02078592413334 293.861849483583 118.16452492462658 293.8184225120283 118.30999999999997 293.8299999999999 M 165.83 290.18 Q 165.9 287.8 167.18 289.79 L 174.53 301.28000000000003 C 174.70413660674745 301.55111076270094 174.96961327505494 301.7528730306146 175.28 301.85 Q 177.35 302.51000000000005 179.45 302.06 C 179.73104700405668 301.99541669160675 179.93280479795635 301.7360138137358 179.94 301.43 L 180.18 277.81 C 180.18091491008812 277.4825298449749 179.96284490161784 277.21550534480724 179.69 277.21 L 174.68 277.09999999999997 C 174.4027091795777 277.09633393970654 174.17172375157867 277.35397153247465 174.16 277.67999999999995 L 173.76 287.7099999999999 Q 173.67 289.9199999999999 172.51 288.00999999999993 L 166.38 277.97999999999996 C 166.00732087066086 277.3713280013341 165.3062387677443 276.9999439684378 164.53 276.99999999999994 L 160.48 276.99999999999994 C 160.2165869724378 277.00005716763826 159.96424198045713 277.10399025274046 159.7798706370862 277.28836159611143 C 159.59549929371522 277.47273293948234 159.49462657302658 277.7220175670495 159.5 277.97999999999996 L 159.92 301.30999999999995 C 159.92500112361856 301.6141294171125 160.11808426483125 301.87961873627995 160.39999999999998 301.96999999999997 Q 162.65999999999997 302.66999999999996 164.95999999999998 302.07 C 165.25487163736497 301.9977044890672 165.46416324086084 301.7391678023958 165.46999999999997 301.44 L 165.82999999999998 290.18 M 203.22 285.34 L 199.53 278.53999999999996 C 199.01726165702405 277.5993482838622 198.18146860850175 277.0162368546606 197.38 277.03999999999996 L 192.67 277.21999999999997 C 192.4366838206987 277.22524724169335 192.23097513439208 277.36541558712383 192.1300138597081 277.58794247826404 C 192.02905258502412 277.81046936940425 192.04809489460527 278.08172895634823 192.17999999999998 278.29999999999995 Q 195.95999999999998 284.65 199.33999999999997 291.21 Q 200.53999999999996 293.53999999999996 200.67 296.04999999999995 Q 200.82 298.61999999999995 200.80999999999997 301.18999999999994 C 200.81103553625525 301.5084056520944 200.9956203342772 301.7852828491273 201.26999999999998 301.87999999999994 Q 202.85 302.42999999999995 205.61999999999998 302.06999999999994 C 206.32257001137796 301.9820965174213 206.837623816166 301.3622860065747 206.79999999999998 300.6499999999999 Q 206.64999999999998 298.0799999999999 206.77999999999997 295.87999999999994 Q 206.89999999999998 293.68999999999994 208.07999999999998 291.36999999999995 Q 211.55999999999997 284.59 215.26 277.92999999999995 C 215.31713326284748 277.8235365297617 215.32437971653133 277.69732604557703 215.27971456463086 277.58663414738896 C 215.2350494127304 277.4759422492009 215.14326219547985 277.3926386671549 215.03 277.35999999999996 Q 212.06 276.54999999999995 209.05 277.19999999999993 C 208.7498045932726 277.26215483547486 208.49520456766274 277.47931368084795 208.37 277.7799999999999 Q 206.61 281.8999999999999 203.81 285.3699999999999 C 203.73642150816863 285.46499335699883 203.62106287853086 285.5184204050407 203.502545472473 285.51239409625805 C 203.38402806641517 285.5063677874754 203.27801545122614 285.4416845744425 203.22 285.3399999999999 M 269.21 297.71 Q 270.85999999999996 298.54999999999995 271.25 300.52 C 271.4468439006981 301.513597667323 272.2948581733959 302.22727304533595 273.27 302.21999999999997 L 277.39 302.21 C 277.5874752088268 302.20909199917844 277.7707068935593 302.10838214070736 277.88186952968056 301.9396531394518 C 277.9930321658018 301.7709241381963 278.0184121905949 301.5549912232804 277.95 301.35999999999996 L 269.47999999999996 277.71 C 269.32410704101056 277.2830400174978 268.91243624135876 276.9992669420097 268.45 277 L 263.67 277 C 262.9974333541622 276.9990293773176 262.40064800617415 277.4115722688798 262.18 278.03 L 253.91 301.27 C 253.86240919661512 301.40369004711897 253.867362237971 301.54986602584296 253.92375013327944 301.67579899203184 C 253.98013802858787 301.80173195822067 254.08325029660506 301.8969018370965 254.21 301.94 Q 255.81 302.49 258.58 302.03 Q 260.26 301.76 260.58 300.08 Q 261.15 297.05 264.75 297.75 Q 266.11 298.02 268.26 297.6 C 268.60902324556554 297.53546305449424 268.9440512784592 297.5742557740925 269.21 297.71000000000004 M 280.81 300.95 Q 280.7 301.31 280.72 301.69 C 280.74040491488097 301.96920808737593 281.0031713663492 302.1838006894083 281.32000000000005 302.18 Q 285.70000000000005 302.13 290.08000000000004 302.06 Q 294.91 301.98 297.08000000000004 300.55 Q 301.15000000000003 297.86 299.93000000000006 292.02000000000004 Q 299.81000000000006 291.44000000000005 299.3500000000001 290.58000000000004 Q 298.9700000000001 289.88000000000005 298.75000000000006 289.12000000000006 Q 298.4800000000001 288.24000000000007 298.7900000000001 286.87000000000006 Q 300.8300000000001 277.86000000000007 291.25000000000006 277.00000000000006 Q 288.30000000000007 276.74000000000007 281.44000000000005 277.1600000000001 C 281.155576800496 277.17536300745206 280.9299431273586 277.4053357896883 280.9200000000001 277.69000000000005 Q 280.44000000000005 288.8500000000001 280.9800000000001 300.01000000000005 Q 280.99000000000007 300.34000000000003 280.81000000000006 300.95000000000005 M 312.8 285.89 L 308.58 277.84999999999997 C 308.4465827173823 277.58978525226985 308.1769076756184 277.3893510996075 307.84 277.29999999999995 Q 304.91999999999996 276.48999999999995 302.03 277.4 C 301.91369264584625 277.43515584181347 301.8208316490155 277.5235112686969 301.77643309035307 277.6412639677581 C 301.73203453169066 277.75901666681926 301.7406651796134 277.8940547739962 301.79999999999995 278.01 Q 307.44999999999993 288.55 308.68999999999994 290.56 Q 310.8299999999999 294.08 310.06999999999994 299.5 Q 309.72999999999996 301.96 312.2199999999999 302.05 L 314.7499999999999 302.14 C 315.22697074159845 302.1563942925606 315.6868192425344 301.9616229236961 316.005428438991 301.6082563603534 C 316.32403763544755 301.25488979701066 316.4685645038907 300.7793539380183 316.39999999999986 300.31 Q 315.60999999999984 294.82 317.67999999999984 290.99 Q 321.17999999999984 284.52 325.11999999999983 277.88 C 325.1849966582061 277.7728134905168 325.1947230210159 277.6398793658483 325.1456478660351 277.5294602671416 C 325.09657271105436 277.41904116843494 324.99583187276625 277.34719272327703 324.8799999999998 277.34 L 319.3199999999998 277.09 C 318.7640375683567 277.06501780741456 318.18003384890636 277.46214033664074 317.8199999999998 278.10999999999996 L 313.42999999999984 285.94999999999993 Q 313.11999999999983 286.50999999999993 312.79999999999984 285.88999999999993 M 139.8 331.47 L 148.20000000000002 330.91 C 148.52424970460737 330.89195622832165 148.77687873203735 330.68808017109745 148.77 330.45000000000005 L 148.67000000000002 325.93000000000006 C 148.6635613620719 325.644603839216 148.39387548877286 325.4147076849283 148.06 325.4100000000001 L 133.88 325.2700000000001 C 133.69169629221392 325.2700000000001 133.51110501405566 325.34901763027415 133.37795418535754 325.4896699141102 C 133.24480335665945 325.6303221979462 133.17 325.82108763262045 133.17 326.0200000000001 L 132.98999999999998 349.8300000000001 C 132.98731457423102 349.9909176288559 133.04723391830143 350.1461668402182 133.15629739613271 350.26087153242014 C 133.26536087396403 350.375576224622 133.414423873388 350.4401187883141 133.57 350.4400000000001 L 148.32999999999998 350.5000000000001 C 148.8381019698443 350.5000000000001 149.24999999999997 350.08362481734275 149.24999999999997 349.5700000000001 L 149.24999999999997 345.5100000000001 C 149.25038894408007 345.26535114292744 149.06827763962175 345.0654728819366 148.83999999999997 345.0600000000001 L 140.55999999999997 344.7600000000001 C 139.93071958259267 344.73640991633624 139.41491717863872 344.29670950640826 139.33999999999997 343.7200000000001 Q 138.87999999999997 340.1500000000001 141.42 340.4000000000001 Q 142.48999999999998 340.5100000000001 142.6 340.5100000000001 Q 144.9 340.5300000000001 147.19 340.4500000000001 C 147.49036964535463 340.44308964463255 147.74792817138783 340.2427663466067 147.82 339.9600000000001 Q 148.41 337.6600000000001 147.72 335.4000000000001 C 147.63064888604103 335.1114527527391 147.3658867192484 334.9108753536538 147.06 334.9000000000001 L 140.31 334.6900000000001 C 139.95971240904353 334.6781123772906 139.65659289844052 334.5284237300792 139.5 334.29000000000013 Q 138.79 333.26000000000016 139.14 332.04000000000013 C 139.2296940675897 331.7211865932554 139.4933877279549 331.4934511593037 139.79999999999998 331.47000000000014 M 167.15 336.67 Q 167.17000000000002 338.14000000000004 166.32 336.95 Q 163.6 333.11 161.15 329.09 Q 159.46 326.32 158.08 325.60999999999996 Q 155.77 324.42999999999995 152.95000000000002 325.77 C 152.67507408621057 325.90403479993915 152.5004695820292 326.1872821067223 152.50000000000003 326.5 L 152.50000000000003 349.51 C 152.50000000000003 349.77256432494113 152.60430327196178 350.02437469871114 152.78996428662535 350.2100357133747 C 152.97562530128891 350.3956967280382 153.2274356750589 350.5 153.49000000000004 350.5 L 157.85000000000005 350.5 C 158.09485429350053 350.5000028052647 158.32940132465927 350.40241612206256 158.50064652428287 350.2292891070585 C 158.6718917239065 350.05616209205436 158.7653842509237 349.82210438677095 158.76000000000005 349.58 L 158.49000000000004 337.76 Q 158.45000000000005 335.94 159.44000000000003 337.45 L 167.55 349.77 C 167.77103473337502 350.11312462002894 168.0555031102051 350.3283979862788 168.29000000000002 350.33 L 172.13000000000002 350.32 C 172.61048773235282 350.32 173.00000000000003 349.8678075973291 173.00000000000003 349.31 L 173.18000000000004 326.05 C 173.17915282438187 325.7576590438107 172.98037718218723 325.505048331855 172.70000000000005 325.44 Q 170.07000000000005 324.84 167.53000000000006 325.65 C 167.23754424422464 325.7466933693304 167.04262235298788 326.01471096978094 167.05000000000007 326.31 L 167.15000000000006 336.67 M 196.55 340.29 L 191.39000000000001 326.23 C 191.2708754783628 325.9023929397089 191.0439861516941 325.6606256244061 190.78 325.58000000000004 Q 188.48 324.82000000000005 185.35 325.77000000000004 C 185.20837412242733 325.8135494727013 185.09031033012226 325.9123998973628 185.0225449255896 326.04416596173184 C 184.95477952105696 326.1759320261009 184.9430454615304 326.3294663133342 184.98999999999998 326.47 L 192.61999999999998 349.36 C 192.8477574770222 350.0410575953514 193.4800279892963 350.50015847687524 194.18999999999997 350.5 L 199.16999999999996 350.5 C 199.60683448612187 350.50060561465966 199.9956310247752 350.2280472164284 200.13999999999996 349.82 Q 204.08999999999995 338.49 207.55999999999995 327.56 Q 208.31999999999994 325.18 206.33999999999995 325.14 Q 204.86999999999995 325.11 204.16999999999996 325.06 Q 202.16999999999996 324.92 201.49999999999997 326.75 Q 200.64999999999998 329.07 196.90999999999997 340.28 Q 196.72999999999996 340.79999999999995 196.54999999999995 340.28999999999996 M 216.95 326.301 C 216.95166016899884 325.760148996118 216.514849057001 325.3202050175382 215.974 325.318 L 211.594 325.30199999999996 C 211.33408747034485 325.301203131555 211.08450385879485 325.4036893801282 210.9001553339787 325.5869126850573 C 210.71580680916256 325.7701359899865 210.61179443277982 326.0190874628887 210.611 326.27899999999994 L 210.53 349.51899999999995 C 210.52833983100115 350.05985100388193 210.965150942999 350.4997949824617 211.506 350.50199999999995 L 215.886 350.518 C 216.14591252965513 350.51879686844495 216.39549614120514 350.41631061987175 216.5798446660213 350.2330873149426 C 216.76419319083743 350.04986401001344 216.86820556722017 349.80091253711123 216.869 349.541 L 216.951 326.301 M 235.67 346.76 L 236.39999999999998 348.8 C 236.7579625789874 349.80723612307696 237.52024179599596 350.48481764930676 238.28999999999996 350.48 L 243.02999999999997 350.45000000000005 C 243.18146525251098 350.4498542511695 243.32198697484304 350.372262077709 243.40585797988044 350.2424617127702 C 243.48972898491783 350.11266134783136 243.50623232667576 349.94723854115256 243.44999999999996 349.80000000000007 L 234.60999999999996 326.2700000000001 C 234.49542777132245 325.97167165336526 234.26124243419795 325.7411454621333 233.96999999999997 325.6400000000001 Q 231.10999999999996 324.6700000000001 228.27999999999997 325.6400000000001 C 227.9763426750839 325.7418623437742 227.7365576847872 325.97795833422015 227.62999999999997 326.2800000000001 L 218.94999999999996 349.8800000000001 C 218.89670475643007 350.02324355893364 218.91644214656262 350.1836386157744 219.00266201837795 350.3079556402523 C 219.0888818901933 350.43227266473025 219.23030576995512 350.5042496714582 219.37999999999997 350.5000000000001 L 224.67999999999998 350.4500000000001 C 224.9467627227073 350.45050278443915 225.20251695380875 350.2616381214719 225.32999999999998 349.9700000000001 L 226.67999999999998 346.86000000000007 C 226.80098833458814 346.5795547154047 227.09863169607004 346.39548579448825 227.43999999999997 346.39000000000004 L 234.93999999999997 346.28000000000003 C 235.27430932636904 346.2791766402199 235.56689218173833 346.47155988758595 235.66999999999996 346.76000000000005 M 254.75 345.29 Q 252.53 346.13 250.06 344.13 C 249.80865198833243 343.92333889665366 249.48561422671474 343.84536426453906 249.19 343.92 Q 247.22 344.40000000000003 245.82999999999998 345.88 C 245.6186786051822 346.09741869201997 245.56321558233645 346.4262351846056 245.69 346.71 Q 247.57999999999998 350.95 252.5 351.07 Q 258.26 351.21 260.98 347.24 Q 262.45000000000005 345.1 262.51 340.8 Q 262.62 333.36 262.33 325.93 C 262.31831027931025 325.60948302271015 262.0917919654356 325.35631549543854 261.82 325.36 L 256.95 325.43 C 256.699366518685 325.435573428306 256.4992478806892 325.675715793901 256.5 325.97 L 256.5 342.76000000000005 Q 256.5 344.63000000000005 254.75 345.29 M 273.06 343.94 L 273.43 341.29 C 273.4696338519056 340.9806293937434 273.7332772718995 340.7467521663295 274.05 340.74 L 280.81 340.56 C 281.4708120962492 340.543633439015 281.9984848261603 340.0514345060727 282 339.45 L 282 335.65999999999997 C 282 335.418652994246 281.90412527526746 335.1871909335079 281.73346717087975 335.0165328291202 C 281.56280906649204 334.8458747247325 281.33134700575397 334.74999999999994 281.09 334.74999999999994 Q 278 334.74999999999994 275.26 334.61999999999995 Q 271.94 334.4599999999999 273.32 331.74999999999994 C 273.4565397813524 331.47830668280636 273.7401616531912 331.30200119490655 274.06 331.28999999999996 L 282.18 330.95 C 282.4926599513623 330.9389612413784 282.75544625054357 330.7336594451431 282.82 330.45 Q 283.04 329.47999999999996 282.94 328.5 Q 282.91 328.26 282.87 326.48 Q 282.84000000000003 325 281.17 325.14000000000004 Q 279.91 325.25000000000006 279.83000000000004 325.25000000000006 L 268.16 325.25000000000006 C 267.6668229234381 325.2499695560414 267.26547974436596 325.6468533664571 267.26000000000005 326.14000000000004 L 267.07000000000005 349.94000000000005 C 267.0673031359949 350.07612098460453 267.1191217158402 350.2074778592039 267.2134868910915 350.30373033796025 C 267.3078520663429 350.3999828167166 267.4366025247251 350.4528063611094 267.57000000000005 350.45000000000005 L 282.32000000000005 350.34000000000003 C 282.61406333357337 350.3351683596843 282.8542841715646 350.1036828248928 282.87000000000006 349.81000000000006 L 283.07000000000005 345.69000000000005 C 283.08591818854455 345.40691480756743 282.85905969370157 345.1622634895995 282.56000000000006 345.14000000000004 L 273.56000000000006 344.47 C 273.41449566210605 344.46066397110235 273.2784207695166 344.3985400512462 273.18381130009845 344.2982540136629 C 273.08920183068034 344.1979679760797 273.04441683483475 344.0683804141948 273.06000000000006 343.94000000000005" stroke-linecap="round" />
</g>
<g transform="matrix(2.57 0 0 2.57 582.02 368.75)"  >
<path style="stroke: rgb(154,116,82); stroke-width: 2; stroke-dasharray: none; stroke-linecap: butt; stroke-dashoffset: 0; stroke-linejoin: miter; stroke-miterlimit: 4; fill: none; fill-rule: nonzero; opacity: 1;" vector-effect="non-scaling-stroke"  transform=" translate(-226.47, -137.48)" d="M 233.54 140.25 L 233.92999999999998 136.87 C 233.95782955288635 136.62106991118895 233.86240156227768 136.37391052110232 233.67027471385143 136.1973090745691 C 233.47814786542517 136.02070762803586 233.2098311005519 135.9335157782351 232.93999999999997 135.96 Q 225.61999999999998 136.69 218.99999999999997 134.71" stroke-linecap="round" />
</g>
<g transform="matrix(2.57 0 0 2.57 532.75 376.39)"  >
<path style="stroke: rgb(180,142,109); stroke-width: 2; stroke-dasharray: none; stroke-linecap: butt; stroke-dashoffset: 0; stroke-linejoin: miter; stroke-miterlimit: 4; fill: none; fill-rule: nonzero; opacity: 1;" vector-effect="non-scaling-stroke"  transform=" translate(-207.29, -140.46)" d="M 219 134.71 Q 204.4 130.61 194.75 118 Q 193.72 116.64 193.33 118.3 Q 191.28 127.02 182.75 131.1 C 181.9007664142948 131.50508716476617 181.34343715395195 132.34684653038744 181.3 133.29 Q 180.81 143.16 183.32000000000002 151.7 Q 183.83 153.45999999999998 185.47000000000003 154.19 L 207.04000000000002 163.8 C 207.33223124764442 163.93306933280803 207.6677687523556 163.93306933280803 207.96 163.8 L 228.66 154.68 C 229.17679273023234 154.4472952997978 229.59821497455383 154.0329557822716 229.85 153.51000000000002 Q 232.96 146.97000000000003 233.54 140.25000000000003" stroke-linecap="round" />
</g>
<g transform="matrix(2.57 0 0 2.57 578.86 368.75)"  >
<path style="stroke: rgb(224,197,163); stroke-width: 2; stroke-dasharray: none; stroke-linecap: butt; stroke-dashoffset: 0; stroke-linejoin: miter; stroke-miterlimit: 4; fill: none; fill-rule: nonzero; opacity: 1;" vector-effect="non-scaling-stroke"  transform=" translate(-225.24, -137.48)" d="M 219 134.71 Q 216.34 134.81 218.54 135.05 Q 218.69 135.06 218.82 135.14000000000001 Q 224 138.23000000000002 230 138.26000000000002 Q 230.08 138.26000000000002 231.49 138.10000000000002 Q 233.5 137.87000000000003 233.54000000000002 140.25000000000003" stroke-linecap="round" />
</g>
<g transform="matrix(2.57 0 0 2.57 533.3 519.24)"  >
<path style="stroke: rgb(177,151,126); stroke-width: 2; stroke-dasharray: none; stroke-linecap: butt; stroke-dashoffset: 0; stroke-linejoin: miter; stroke-miterlimit: 4; fill: none; fill-rule: nonzero; opacity: 1;" vector-effect="non-scaling-stroke"  transform=" translate(-207.5, -196.04)" d="M 246.31 181.94 Q 246.35 180.07999999999998 247 175.5 Q 248.71 163.39 250.32 150.69 Q 250.47 149.54 249.41 150.02 L 210.57999999999998 167.71 C 210.11077178562522 167.92329878943343 209.7779332392276 168.34589155059 209.69 168.84 Q 209 172.53 207.78 176.43 Q 207.48 177.39000000000001 207 177.01000000000002 Q 206.76 176.83 206.7 176.4 Q 206.16 172.46 205.58999999999997 169.02 C 205.4891989038043 168.43219491079748 205.10397242422175 167.9310264810493 204.55999999999997 167.68 L 165.31999999999996 149.89000000000001 Q 164.65999999999997 149.60000000000002 164.75999999999996 150.31 Q 166.98999999999995 167.07 169.19999999999996 183.88 Q 169.23999999999995 184.15 169.34999999999997 184.6 Q 169.63999999999996 185.72 168.90999999999997 185.29 C 168.66054306485515 185.14286911797473 168.46582079803784 184.86160362146083 168.36999999999998 184.51 Q 163.59999999999997 166.92 160.26 149.07 C 160.2270390024556 148.8873098647222 160.11973439106538 148.72629122197938 159.96298858207606 148.62431202095019 C 159.80624277308675 148.52233281992102 159.61368407256657 148.4882596693727 159.42999999999998 148.53 L 119.30999999999997 157.71 C 119.18454862078524 157.73883204419914 119.07663144335227 157.81770656391166 119.01354599425643 157.92667233962266 C 118.9504605451606 158.03563811533363 118.93824890711826 158.16425882235117 118.97999999999998 158.28 L 132.79999999999998 196.36 Q 133.41 198.05 135.17999999999998 198.38000000000002 Q 138.89999999999998 199.06000000000003 141.89 201.50000000000003 Q 144.98999999999998 204.04000000000002 146.07999999999998 207.28000000000003 Q 147.66 211.96000000000004 144.16 216.15000000000003 Q 143.57999999999998 216.83000000000004 142.73 217.16000000000003 Q 141.89999999999998 217.47000000000003 141.04 217.70000000000002 C 140.9209110974457 217.73043954808603 140.82074892914414 217.81150952027173 140.7637622817247 217.92358326019664 C 140.70677563430525 218.03565700012157 140.69815957102395 218.16851755004876 140.73999999999998 218.29000000000002 L 146.29 234.12000000000003 C 146.43094245373678 234.50842396887145 146.84403404505764 234.71719068706585 147.22 234.59000000000003 L 173.43 225.77000000000004 C 173.80928067044897 225.64160943276653 174.04976585252345 225.26844277092684 174.01000000000002 224.87000000000003 Q 173.17000000000002 216.74000000000004 172.3 208.73000000000002 Q 172.24 208.20000000000002 172.44 207.79000000000002 Q 173.16 206.31000000000003 173.71 208.45000000000002 Q 175.72 216.28000000000003 178.17000000000002 224.88000000000002 C 178.2986747630152 225.33801428193092 178.57589872889469 225.72541700348046 178.95000000000002 225.97000000000003 L 204.83 242.99000000000004 Q 205.25 243.27000000000004 205.27 242.75000000000003 Q 206.31 218.51000000000002 206.61 194.25000000000003 Q 206.64000000000001 191.81000000000003 207.68 192.87000000000003 C 207.89202092421382 193.08862769159663 208.01698445017726 193.40639208618936 208.03 193.76000000000002 L 209.75 242.76000000000002 Q 209.78 243.74 210.59 243.19000000000003 Q 222.4 235.08000000000004 234.56 227.31000000000003 Q 236.78 225.89000000000004 237.5 222.25000000000003 Q 238.22 218.61000000000004 242.12 205.33000000000004 Q 242.44 204.24000000000004 242.89000000000001 204.66000000000005 C 243.07670694305222 204.8297851155042 243.16706690350222 205.1686349671917 243.13000000000002 205.56000000000006 L 241.38000000000002 224.94000000000005 C 241.34421304131914 225.33017763272008 241.588990514962 225.6952694578145 241.97000000000003 225.82000000000005 L 267.75 234.43000000000006 C 268.21274396996415 234.5813540284876 268.71341703483216 234.33323286359726 268.88 233.87000000000006 L 274.29 218.79000000000005 C 274.48909166773666 218.24394116463657 274.2555087565272 217.6426814487456 273.75 217.40000000000006 Q 268.89 215.03000000000006 268.57 210.79000000000005 Q 268.3 207.17000000000004 271.01 203.83000000000004 Q 273.92 200.24000000000004 279.32 198.69000000000005 Q 281.09 198.19000000000005 282.14 196.68000000000006 Q 282.87 195.64000000000007 283.41999999999996 193.82000000000005 Q 284.11999999999995 191.51000000000005 284.35999999999996 190.86000000000004 Q 290.43999999999994 174.66000000000005 296.03 158.28000000000003 C 296.0697455092461 158.1592340061906 296.0565509219844 158.0272906209255 295.9936779818334 157.9167866655086 C 295.93080504168245 157.80628271009166 295.82412154903153 157.72753128823769 295.7 157.70000000000002 L 255.89999999999998 148.73000000000002 C 255.66779777308898 148.67647208115375 255.42382825891173 148.71829577778553 255.22271305595564 148.84610730863614 C 255.02159785299958 148.9739188394867 254.8801363730241 149.17704194287725 254.82999999999998 149.41000000000003 Q 251.23 165.40000000000003 247.49999999999997 181.00000000000003 Q 247.27999999999997 181.94000000000003 246.77999999999997 182.27000000000004 Q 246.29999999999998 182.59000000000003 246.30999999999997 181.94000000000003" stroke-linecap="round" />
</g>
<g transform="matrix(2.57 0 0 2.57 532.93 475.91)"  >
<path style="stroke: rgb(180,142,109); stroke-width: 2; stroke-dasharray: none; stroke-linecap: butt; stroke-dashoffset: 0; stroke-linejoin: miter; stroke-miterlimit: 4; fill: none; fill-rule: nonzero; opacity: 1;" vector-effect="non-scaling-stroke"  transform=" translate(-207.36, -179.18)" d="M 139.06 204.43 Q 137.79 203.23000000000002 136.08 202.93 Q 131.27 202.06 127.38000000000001 197.06 C 127.28299391101572 196.93760724880832 127.13345519457499 196.8687866390584 126.97739416483329 196.87471300727645 C 126.82133313509159 196.8806393754945 126.67744444519764 196.96060279814319 126.59 197.09 Q 122.26 203.52 125.28 210 Q 126.86 213.38 129.66 214.54 Q 132.69 215.79999999999998 136.5 214.75 Q 146.91 211.89 139.06 204.43 M 285.25 199.93 Q 283.16 201.48000000000002 280.71 202.34 Q 276.7 203.73 276.02 204.23 Q 273.52 206.09 272.78999999999996 209.34 Q 272.26 211.68 274.29999999999995 212.93 Q 278.37999999999994 215.43 282.99999999999994 215.16 Q 285.19999999999993 215.04 286.65999999999997 214.06 Q 288.32 212.94 289.28999999999996 211.05 Q 292.16999999999996 205.45000000000002 290.10999999999996 199.68 Q 289.71 198.54000000000002 289.15 197.96 Q 287.95 196.71 286.81 198.17000000000002 Q 285.7 199.60000000000002 285.25 199.93 M 192.6 144.63 Q 191.92 144.06 191.32999999999998 143.38 C 191.08531007692397 143.10982202668828 190.79536967758628 142.94158500485037 190.51999999999998 142.91 Q 189.35999999999999 142.79 188.95999999999998 143.7 C 188.8420606759409 143.97056183402012 188.89950187361904 144.3113796069104 189.10999999999999 144.58999999999997 Q 194.44 151.47999999999996 200.85 145.73999999999998 Q 201.54 145.11999999999998 201.73999999999998 144.45 Q 202.14999999999998 143.06 200.79999999999998 142.85 C 200.52433613791126 142.80540240959658 200.21255904222625 142.9204630044327 199.95999999999998 143.16 Q 197.52999999999997 145.47 194.20999999999998 145.28 Q 193.30999999999997 145.23 192.59999999999997 144.63 M 216.27 144.53 Q 215.45000000000002 143.9 214.58 143.35 Q 213.86 142.9 213.33 142.98999999999998 Q 212.4 143.12999999999997 212.51000000000002 144.39 C 212.59768581885697 145.2996066601341 213.1231364228851 146.11200546636198 213.92000000000002 146.57 Q 220.64000000000001 150.41 224.75000000000003 145.01999999999998 Q 226.42000000000002 142.82999999999998 223.81000000000003 143.01 C 223.5159255607324 143.02914451001823 223.22104794320526 143.18377545579466 222.99000000000004 143.44 Q 221.03000000000003 145.6 218.08000000000004 145.35 Q 217.21000000000004 145.26999999999998 216.27000000000004 144.53" stroke-linecap="round" />
</g>
<g transform="matrix(2.57 0 0 2.57 339.47 754.03)"  >
<path style="stroke: rgb(180,153,134); stroke-width: 2; stroke-dasharray: none; stroke-linecap: butt; stroke-dashoffset: 0; stroke-linejoin: miter; stroke-miterlimit: 4; fill: none; fill-rule: nonzero; opacity: 1;" vector-effect="non-scaling-stroke"  transform=" translate(-132.09, -287.4)" d="M 119.06 288.22 Q 121.23 288.51000000000005 123.24000000000001 287.65000000000003 C 123.53373763390583 287.5217252365117 123.76151018200075 287.27949093933137 123.87 286.98 Q 125.66000000000001 282.25 119.5 282.75 Q 117.16 282.94 117.38 284.89 Q 117.44 285.46999999999997 117.39999999999999 286.12 Q 117.33999999999999 286.83 117.63 287.38 Q 117.99 288.08 119.06 288.21999999999997 M 144.25 291.91 L 146.44 292.26000000000005 C 146.57827762125413 292.2790406827724 146.71473476385023 292.2198056372831 146.80039206166643 292.1035564473897 C 146.88604935948263 291.9873072574963 146.908619026815 291.83072020379694 146.85999999999999 291.69000000000005 L 145.32 287.07000000000005 Q 145.07 286.34000000000003 144.69 287.06000000000006 Q 143.72 288.9200000000001 143.76 291.2300000000001 C 143.7674291633011 291.58073226515785 143.9744997196582 291.86809548622483 144.25 291.9100000000001" stroke-linecap="round" />
</g>
<g transform="matrix(2.57 0 0 2.57 683.52 760.96)"  >
<path style="stroke: rgb(180,142,109); stroke-width: 2; stroke-dasharray: none; stroke-linecap: butt; stroke-dashoffset: 0; stroke-linejoin: miter; stroke-miterlimit: 4; fill: none; fill-rule: nonzero; opacity: 1;" vector-effect="non-scaling-stroke"  transform=" translate(-265.96, -290.09)" d="M 266.255 292.683 C 267.24821329008273 292.56990263911376 267.92112805916696 291.31719769972733 267.758 289.885 C 267.6795836832155 289.19724088715 267.4149126244148 288.55926969317557 267.0222114421858 288.11143281487426 C 266.62951025995676 287.66359593657296 266.1409469945175 287.44257784387827 265.664 287.497 C 264.6712313318957 287.6108428286139 263.99888705138807 288.86331905821453 264.162 290.295 C 264.24041631678443 290.98275911285003 264.50508737558516 291.62073030682444 264.8977885578142 292.06856718512574 C 265.2904897400432 292.51640406342705 265.77905300548247 292.73742215612174 266.256 292.683" stroke-linecap="round" />
</g>
<g transform="matrix(2.57 0 0 2.57 746.71 759.5)"  >
<path style="stroke: rgb(180,153,134); stroke-width: 2; stroke-dasharray: none; stroke-linecap: butt; stroke-dashoffset: 0; stroke-linejoin: miter; stroke-miterlimit: 4; fill: none; fill-rule: nonzero; opacity: 1;" vector-effect="non-scaling-stroke"  transform=" translate(-290.55, -289.52)" d="M 293.49 284.08 C 293.49 283.3785983677149 292.9214016322851 282.81 292.22 282.81 L 288.04 282.81 C 287.33859836771495 282.81 286.77000000000004 283.3785983677149 286.77000000000004 284.08 L 286.77000000000004 285.21999999999997 C 286.77000000000004 285.92140163228504 287.33859836771495 286.48999999999995 288.04 286.48999999999995 L 292.22 286.48999999999995 C 292.9214016322851 286.48999999999995 293.49 285.92140163228504 293.49 285.21999999999997 L 293.49 284.08 M 294.33 293.07 C 294.33 292.7888705207701 294.21832174921263 292.51925537309717 294.0195331880577 292.32046681194225 C 293.8207446269028 292.12167825078734 293.55112947922987 292.01 293.27 292.01 L 288.01 292.01 C 287.7288705207701 292.01 287.45925537309716 292.12167825078734 287.26046681194225 292.32046681194225 C 287.06167825078734 292.51925537309717 286.95 292.7888705207701 286.95 293.07 L 286.95 295.17 C 286.95 295.4511294792299 287.06167825078734 295.72074462690284 287.26046681194225 295.91953318805776 C 287.45925537309716 296.11832174921267 287.7288705207701 296.23 288.01 296.23 L 293.27 296.23 C 293.55112947922987 296.23 293.8207446269028 296.11832174921267 294.0195331880577 295.91953318805776 C 294.21832174921263 295.72074462690284 294.33 295.4511294792299 294.33 295.17 L 294.33 293.07" stroke-linecap="round" />
</g>
<g transform="matrix(2.57 0 0 2.57 594.33 882.85)"  >
<path style="stroke: rgb(177,151,126); stroke-width: 2; stroke-dasharray: none; stroke-linecap: butt; stroke-dashoffset: 0; stroke-linejoin: miter; stroke-miterlimit: 4; fill: none; fill-rule: nonzero; opacity: 1;" vector-effect="non-scaling-stroke"  transform=" translate(-231.25, -337.51)" d="M 230.45 336.15 L 229.39 339.60999999999996 C 229.34195786624534 339.7740466809058 229.36436566670383 339.9507326844851 229.450614509634 340.0879467527831 C 229.53686335256415 340.2251608210811 229.6771135074578 340.30724883738014 229.82999999999998 340.30999999999995 L 232.76 340.3999999999999 C 232.8905706599013 340.404136967557 233.00967139411995 340.3309289271374 233.0778272964403 340.20464004930847 C 233.14598319876066 340.07835117147954 233.15429206745492 339.91547671238413 233.1 339.7699999999999 L 231.78 336.0999999999999 Q 231.07 334.1299999999999 230.45 336.1499999999999" stroke-linecap="round" />
</g>
<g transform="matrix(2.57 0 0 2.57 533.17 445.75)"  >
<path style="stroke: none; stroke-width: 1; stroke-dasharray: none; stroke-linecap: butt; stroke-dashoffset: 0; stroke-linejoin: miter; stroke-miterlimit: 4; fill: rgb(110,61,28); fill-rule: nonzero; opacity: 1;" vector-effect="non-scaling-stroke"  transform=" translate(-207.46, -167.44)" d="M 159.51 143.7 Q 160.26999999999998 138 160.03 132.25 Q 159.48 119.19 166.56 109.06 Q 172.24 100.94 182.32 98.43 C 182.6354698767539 98.35293589288355 182.90974440275258 98.16414953083249 183.09 97.9 Q 192.15 84.42 208 84.75 Q 218.77 84.97 228.44 90.01 Q 237.27 94.61 243.87 102.5 Q 256.27 117.34 255.59 138.25 Q 255.5 141 255.5 143.55 C 255.49839954127324 143.80042766024465 255.67225937852885 144.0198222167815 255.92 144.08 Q 277.19 149.01000000000002 297.48 153.59 Q 298.81 153.89000000000001 300.71000000000004 154.72 C 301.4205015162316 155.02802947221193 301.76604701655475 155.8459662894326 301.50000000000006 156.59 L 289.40000000000003 190.8 C 289.21583551304286 191.32899614517018 289.3468933159202 191.9226108993795 289.74 192.34 Q 297.53000000000003 200.47 294.09000000000003 210.44 Q 290.75000000000006 220.1 279.47 219.19 C 278.98086137359957 219.14697565925732 278.51679006349775 219.45909441649397 278.34000000000003 219.95 L 271.61 238.22 Q 270.93 240.05 268.98 239.4 L 239.48000000000002 229.57 C 239.17838281893026 229.46895734043093 238.842129620658 229.5169935116127 238.57000000000002 229.7 L 208.99 249.48999999999998 Q 207.55 250.45 206.08 249.46999999999997 L 176.52 229.74999999999997 C 176.25378280426298 229.57293236217998 175.91833374549785 229.52869732146368 175.61 229.62999999999997 L 145.31 239.64999999999998 C 144.69577328547098 239.85108667427184 144.0370238922183 239.5416070935491 143.82 238.95 L 136.76999999999998 220.07 C 136.57101473544313 219.5333209865948 136.05336287621506 219.19643644328764 135.51 219.25 Q 127.69999999999999 220.03 123.58999999999999 215.19 Q 119.99 210.95 119.88999999999999 204.53 Q 119.76999999999998 197.58 125.27999999999999 192.67000000000002 C 125.96262352507243 192.0610170427819 126.20407106119248 191.0912687419719 125.88999999999999 190.22000000000003 L 113.79999999999998 156.89000000000004 Q 113.02999999999999 154.76000000000005 115.22999999999999 154.25000000000006 L 158.94 144.29000000000005 C 159.24077348285496 144.22430106852718 159.46789429326213 143.98921110687766 159.51 143.70000000000005 z M 233.54 140.25 L 233.92999999999998 136.87 C 233.95782955288635 136.62106991118895 233.86240156227768 136.37391052110232 233.67027471385143 136.1973090745691 C 233.47814786542517 136.02070762803586 233.2098311005519 135.9335157782351 232.93999999999997 135.96 Q 225.61999999999998 136.69 218.99999999999997 134.71 Q 204.39999999999998 130.61 194.74999999999997 118 Q 193.71999999999997 116.64 193.32999999999998 118.3 Q 191.27999999999997 127.02 182.74999999999997 131.1 C 181.90076641429476 131.50508716476617 181.34343715395192 132.34684653038744 181.29999999999998 133.29 Q 180.80999999999997 143.16 183.32 151.7 Q 183.82999999999998 153.45999999999998 185.47 154.19 L 207.04 163.8 C 207.3322312476444 163.93306933280803 207.66776875235558 163.93306933280803 207.95999999999998 163.8 L 228.65999999999997 154.68 C 229.1767927302323 154.4472952997978 229.5982149745538 154.0329557822716 229.84999999999997 153.51000000000002 Q 232.95999999999998 146.97000000000003 233.53999999999996 140.25000000000003 z M 246.31 181.94 Q 246.35 180.07999999999998 247 175.5 Q 248.71 163.39 250.32 150.69 Q 250.47 149.54 249.41 150.02 L 210.57999999999998 167.71 C 210.11077178562522 167.92329878943343 209.7779332392276 168.34589155059 209.69 168.84 Q 209 172.53 207.78 176.43 Q 207.48 177.39000000000001 207 177.01000000000002 Q 206.76 176.83 206.7 176.4 Q 206.16 172.46 205.58999999999997 169.02 C 205.4891989038043 168.43219491079748 205.10397242422175 167.9310264810493 204.55999999999997 167.68 L 165.31999999999996 149.89000000000001 Q 164.65999999999997 149.60000000000002 164.75999999999996 150.31 Q 166.98999999999995 167.07 169.19999999999996 183.88 Q 169.23999999999995 184.15 169.34999999999997 184.6 Q 169.63999999999996 185.72 168.90999999999997 185.29 C 168.66054306485515 185.14286911797473 168.46582079803784 184.86160362146083 168.36999999999998 184.51 Q 163.59999999999997 166.92 160.26 149.07 C 160.2270390024556 148.8873098647222 160.11973439106538 148.72629122197938 159.96298858207606 148.62431202095019 C 159.80624277308675 148.52233281992102 159.61368407256657 148.4882596693727 159.42999999999998 148.53 L 119.30999999999997 157.71 C 119.18454862078524 157.73883204419914 119.07663144335227 157.81770656391166 119.01354599425643 157.92667233962266 C 118.9504605451606 158.03563811533363 118.93824890711826 158.16425882235117 118.97999999999998 158.28 L 132.79999999999998 196.36 Q 133.41 198.05 135.17999999999998 198.38000000000002 Q 138.89999999999998 199.06000000000003 141.89 201.50000000000003 Q 144.98999999999998 204.04000000000002 146.07999999999998 207.28000000000003 Q 147.66 211.96000000000004 144.16 216.15000000000003 Q 143.57999999999998 216.83000000000004 142.73 217.16000000000003 Q 141.89999999999998 217.47000000000003 141.04 217.70000000000002 C 140.9209110974457 217.73043954808603 140.82074892914414 217.81150952027173 140.7637622817247 217.92358326019664 C 140.70677563430525 218.03565700012157 140.69815957102395 218.16851755004876 140.73999999999998 218.29000000000002 L 146.29 234.12000000000003 C 146.43094245373678 234.50842396887145 146.84403404505764 234.71719068706585 147.22 234.59000000000003 L 173.43 225.77000000000004 C 173.80928067044897 225.64160943276653 174.04976585252345 225.26844277092684 174.01000000000002 224.87000000000003 Q 173.17000000000002 216.74000000000004 172.3 208.73000000000002 Q 172.24 208.20000000000002 172.44 207.79000000000002 Q 173.16 206.31000000000003 173.71 208.45000000000002 Q 175.72 216.28000000000003 178.17000000000002 224.88000000000002 C 178.2986747630152 225.33801428193092 178.57589872889469 225.72541700348046 178.95000000000002 225.97000000000003 L 204.83 242.99000000000004 Q 205.25 243.27000000000004 205.27 242.75000000000003 Q 206.31 218.51000000000002 206.61 194.25000000000003 Q 206.64000000000001 191.81000000000003 207.68 192.87000000000003 C 207.89202092421382 193.08862769159663 208.01698445017726 193.40639208618936 208.03 193.76000000000002 L 209.75 242.76000000000002 Q 209.78 243.74 210.59 243.19000000000003 Q 222.4 235.08000000000004 234.56 227.31000000000003 Q 236.78 225.89000000000004 237.5 222.25000000000003 Q 238.22 218.61000000000004 242.12 205.33000000000004 Q 242.44 204.24000000000004 242.89000000000001 204.66000000000005 C 243.07670694305222 204.8297851155042 243.16706690350222 205.1686349671917 243.13000000000002 205.56000000000006 L 241.38000000000002 224.94000000000005 C 241.34421304131914 225.33017763272008 241.588990514962 225.6952694578145 241.97000000000003 225.82000000000005 L 267.75 234.43000000000006 C 268.21274396996415 234.5813540284876 268.71341703483216 234.33323286359726 268.88 233.87000000000006 L 274.29 218.79000000000005 C 274.48909166773666 218.24394116463657 274.2555087565272 217.6426814487456 273.75 217.40000000000006 Q 268.89 215.03000000000006 268.57 210.79000000000005 Q 268.3 207.17000000000004 271.01 203.83000000000004 Q 273.92 200.24000000000004 279.32 198.69000000000005 Q 281.09 198.19000000000005 282.14 196.68000000000006 Q 282.87 195.64000000000007 283.41999999999996 193.82000000000005 Q 284.11999999999995 191.51000000000005 284.35999999999996 190.86000000000004 Q 290.43999999999994 174.66000000000005 296.03 158.28000000000003 C 296.0697455092461 158.1592340061906 296.0565509219844 158.0272906209255 295.9936779818334 157.9167866655086 C 295.93080504168245 157.80628271009166 295.82412154903153 157.72753128823769 295.7 157.70000000000002 L 255.89999999999998 148.73000000000002 C 255.66779777308898 148.67647208115375 255.42382825891173 148.71829577778553 255.22271305595564 148.84610730863614 C 255.02159785299958 148.9739188394867 254.8801363730241 149.17704194287725 254.82999999999998 149.41000000000003 Q 251.23 165.40000000000003 247.49999999999997 181.00000000000003 Q 247.27999999999997 181.94000000000003 246.77999999999997 182.27000000000004 Q 246.29999999999998 182.59000000000003 246.30999999999997 181.94000000000003 z M 139.06 204.43 Q 137.79 203.23000000000002 136.08 202.93 Q 131.27 202.06 127.38000000000001 197.06 C 127.28299391101572 196.93760724880832 127.13345519457499 196.8687866390584 126.97739416483329 196.87471300727645 C 126.82133313509159 196.8806393754945 126.67744444519764 196.96060279814319 126.59 197.09 Q 122.26 203.52 125.28 210 Q 126.86 213.38 129.66 214.54 Q 132.69 215.79999999999998 136.5 214.75 Q 146.91 211.89 139.06 204.43 z M 285.25 199.93 Q 283.16 201.48000000000002 280.71 202.34 Q 276.7 203.73 276.02 204.23 Q 273.52 206.09 272.78999999999996 209.34 Q 272.26 211.68 274.29999999999995 212.93 Q 278.37999999999994 215.43 282.99999999999994 215.16 Q 285.19999999999993 215.04 286.65999999999997 214.06 Q 288.32 212.94 289.28999999999996 211.05 Q 292.16999999999996 205.45000000000002 290.10999999999996 199.68 Q 289.71 198.54000000000002 289.15 197.96 Q 287.95 196.71 286.81 198.17000000000002 Q 285.7 199.60000000000002 285.25 199.93 z" stroke-linecap="round" />
</g>
<g transform="matrix(2.57 0 0 2.57 533.33 311.92)"  >
<path style="stroke: none; stroke-width: 1; stroke-dasharray: none; stroke-linecap: butt; stroke-dashoffset: 0; stroke-linejoin: miter; stroke-miterlimit: 4; fill: rgb(133,205,212); fill-rule: nonzero; opacity: 1;" vector-effect="non-scaling-stroke"  transform=" translate(-207.52, -115.36)" d="M 146.66 108.41 Q 161.71 92.37 182.70999999999998 85.64 Q 184.43999999999997 85.09 186.55999999999997 84.99 Q 188.11999999999998 84.91 186.92 85.91 Q 183.92 88.42 181.19 91.69 Q 179.62 93.57 177.35 94.39999999999999 Q 175.65 95.02999999999999 175.54999999999998 95.07 Q 168.52999999999997 98.21 164.05999999999997 103.80999999999999 Q 154.76999999999998 115.46 154.85999999999999 130.5 Q 154.89 134.88 154.51 139.15 C 154.4751032666835 139.5651665090411 154.1710339808104 139.90977836636392 153.76 140 L 127.49 145.75 C 127.20551367728275 145.81108429689002 126.90967689058631 145.72059276451697 126.70804349399563 145.5108125640236 C 126.50641009740494 145.30103236353028 126.4277012200132 145.00184507367018 126.5 144.72 Q 131.75 124.28999999999999 146.66 108.41 z M 255.54 97.22 Q 280.74 115.05 288.56 144.95 C 288.5910588779643 145.07217084782638 288.5669866891588 145.20175787345022 288.49473272714283 145.30135117244518 C 288.42247876512687 145.40094447144014 288.3100857782305 145.4594580934055 288.19 145.45999999999998 Q 286.2 145.51 282.75 144.74999999999997 Q 272.86 142.56999999999996 262.52 140.13999999999996 Q 260.74 139.71999999999997 260.75 137.88999999999996 Q 260.87 106.24999999999996 236.47 88.47999999999996 C 236.16044887169548 88.25913534094703 235.96508887116133 87.97162439676468 235.94 87.69999999999996 Q 235.85999999999999 86.80999999999996 237.32999999999998 87.38999999999996 Q 247.02999999999997 91.20999999999995 255.54 97.21999999999996 z" stroke-linecap="round" />
</g>
<g transform="matrix(2.57 0 0 2.57 532.75 376.39)"  >
<path style="stroke: none; stroke-width: 1; stroke-dasharray: none; stroke-linecap: butt; stroke-dashoffset: 0; stroke-linejoin: miter; stroke-miterlimit: 4; fill: rgb(250,223,190); fill-rule: nonzero; opacity: 1;" vector-effect="non-scaling-stroke"  transform=" translate(-207.29, -140.46)" d="M 219 134.71 Q 216.34 134.81 218.54 135.05 Q 218.69 135.06 218.82 135.14000000000001 Q 224 138.23000000000002 230 138.26000000000002 Q 230.08 138.26000000000002 231.49 138.10000000000002 Q 233.5 137.87000000000003 233.54000000000002 140.25000000000003 Q 232.96 146.97000000000003 229.85000000000002 153.51000000000002 C 229.59821497455385 154.0329557822716 229.17679273023236 154.4472952997978 228.66000000000003 154.68 L 207.96000000000004 163.8 C 207.66776875235564 163.93306933280803 207.33223124764444 163.93306933280803 207.04000000000005 163.8 L 185.47000000000006 154.19 Q 183.83000000000007 153.46 183.32000000000005 151.7 Q 180.81000000000006 143.16 181.30000000000004 133.29 C 181.34343715395198 132.34684653038744 181.90076641429485 131.50508716476617 182.75000000000003 131.1 Q 191.28000000000003 127.02 193.33000000000004 118.3 Q 193.72000000000003 116.64 194.75000000000003 118 Q 204.40000000000003 130.61 219.00000000000003 134.71 z M 192.6 144.63 Q 191.92 144.06 191.32999999999998 143.38 C 191.08531007692397 143.10982202668828 190.79536967758628 142.94158500485037 190.51999999999998 142.91 Q 189.35999999999999 142.79 188.95999999999998 143.7 C 188.8420606759409 143.97056183402012 188.89950187361904 144.3113796069104 189.10999999999999 144.58999999999997 Q 194.44 151.47999999999996 200.85 145.73999999999998 Q 201.54 145.11999999999998 201.73999999999998 144.45 Q 202.14999999999998 143.06 200.79999999999998 142.85 C 200.52433613791126 142.80540240959658 200.21255904222625 142.9204630044327 199.95999999999998 143.16 Q 197.52999999999997 145.47 194.20999999999998 145.28 Q 193.30999999999997 145.23 192.59999999999997 144.63 z M 216.26999999999998 144.53 Q 215.45 143.9 214.57999999999998 143.35 Q 213.85999999999999 142.9 213.32999999999998 142.98999999999998 Q 212.39999999999998 143.12999999999997 212.51 144.39 C 212.59768581885695 145.2996066601341 213.12313642288507 146.11200546636198 213.92 146.57 Q 220.64 150.41 224.75 145.01999999999998 Q 226.42 142.82999999999998 223.81 143.01 C 223.51592556073237 143.02914451001823 223.22104794320524 143.18377545579466 222.99 143.44 Q 221.03 145.6 218.08 145.35 Q 217.21 145.26999999999998 216.27 144.53 z" stroke-linecap="round" />
</g>
<g transform="matrix(2.57 0 0 2.57 579.37 368.75)"  >
<path style="stroke: none; stroke-width: 1; stroke-dasharray: none; stroke-linecap: butt; stroke-dashoffset: 0; stroke-linejoin: miter; stroke-miterlimit: 4; fill: rgb(197,170,136); fill-rule: nonzero; opacity: 1;" vector-effect="non-scaling-stroke"  transform=" translate(-225.44, -137.48)" d="M 219 134.71 Q 225.62 136.69 232.94 135.96 C 233.20983110055192 135.9335157782351 233.4781478654252 136.02070762803586 233.67027471385146 136.1973090745691 C 233.8624015622777 136.37391052110232 233.95782955288638 136.62106991118895 233.93 136.87 L 233.54000000000002 140.25 Q 233.50000000000003 137.87 231.49 138.1 Q 230.08 138.26 230 138.26 Q 224 138.23 218.82 135.14 Q 218.69 135.05999999999997 218.54 135.04999999999998 Q 216.34 134.80999999999997 219 134.70999999999998 z" stroke-linecap="round" />
</g>
<g transform="matrix(2.57 0 0 2.57 533.02 391.61)"  >
<path style="stroke: none; stroke-width: 1; stroke-dasharray: none; stroke-linecap: butt; stroke-dashoffset: 0; stroke-linejoin: miter; stroke-miterlimit: 4; fill: rgb(110,61,28); fill-rule: nonzero; opacity: 1;" vector-effect="non-scaling-stroke"  transform=" translate(-207.4, -146.38)" d="M 194.21 145.28 Q 197.53 145.47 199.96 143.16 C 200.21255904222627 142.9204630044327 200.5243361379113 142.80540240959658 200.8 142.85 Q 202.15 143.06 201.74 144.45 Q 201.54000000000002 145.11999999999998 200.85000000000002 145.73999999999998 Q 194.44000000000003 151.48 189.11 144.58999999999997 C 188.89950187361907 144.3113796069104 188.84206067594093 143.97056183402012 188.96 143.7 Q 189.36 142.79 190.52 142.91 C 190.7953696775863 142.94158500485037 191.085310076924 143.10982202668828 191.33 143.38 Q 191.92000000000002 144.06 192.60000000000002 144.63 Q 193.31000000000003 145.23 194.21000000000004 145.28 z M 218.08 145.35 Q 221.03 145.6 222.99 143.44 C 223.22104794320524 143.18377545579466 223.51592556073237 143.02914451001823 223.81 143.01 Q 226.42000000000002 142.82999999999998 224.75 145.01999999999998 Q 220.64 150.40999999999997 213.92 146.57 C 213.12313642288507 146.11200546636198 212.59768581885695 145.2996066601341 212.51 144.39 Q 212.39999999999998 143.13 213.32999999999998 142.98999999999998 Q 213.85999999999999 142.89999999999998 214.57999999999998 143.35 Q 215.45 143.9 216.26999999999998 144.53 Q 217.20999999999998 145.27 218.07999999999998 145.35 z" stroke-linecap="round" />
</g>
<g transform="matrix(2.57 0 0 2.57 533.3 519.24)"  >
<path style="stroke: none; stroke-width: 1; stroke-dasharray: none; stroke-linecap: butt; stroke-dashoffset: 0; stroke-linejoin: miter; stroke-miterlimit: 4; fill: rgb(244,240,223); fill-rule: nonzero; opacity: 1;" vector-effect="non-scaling-stroke"  transform=" translate(-207.5, -196.04)" d="M 246.78 182.27 Q 247.28 181.94 247.5 181 Q 251.23 165.4 254.83 149.41 C 254.88013637302413 149.17704194287722 255.0215978529996 148.97391883948669 255.22271305595567 148.8461073086361 C 255.42382825891175 148.7182957777855 255.667797773089 148.67647208115372 255.9 148.73 L 295.7 157.7 C 295.82412154903153 157.72753128823766 295.93080504168245 157.80628271009164 295.9936779818334 157.91678666550857 C 296.0565509219844 158.02729062092547 296.0697455092461 158.15923400619056 296.03 158.28 Q 290.44 174.66 284.35999999999996 190.86 Q 284.11999999999995 191.51000000000002 283.41999999999996 193.82000000000002 Q 282.86999999999995 195.64000000000001 282.14 196.68000000000004 Q 281.09 198.19000000000003 279.32 198.69000000000003 Q 273.92 200.24000000000004 271.01 203.83 Q 268.3 207.17000000000002 268.57 210.79000000000002 Q 268.89 215.03000000000003 273.75 217.40000000000003 C 274.2555087565272 217.64268144874558 274.48909166773666 218.24394116463654 274.29 218.79000000000002 L 268.88 233.87000000000003 C 268.71341703483216 234.33323286359723 268.21274396996415 234.58135402848757 267.75 234.43000000000004 L 241.97 225.82000000000005 C 241.58899051496198 225.6952694578145 241.3442130413191 225.33017763272008 241.38 224.94000000000005 L 243.13 205.56000000000006 C 243.1670669035022 205.1686349671917 243.0767069430522 204.8297851155042 242.89 204.66000000000005 Q 242.44 204.24000000000007 242.11999999999998 205.33000000000004 Q 238.21999999999997 218.61000000000004 237.49999999999997 222.25000000000006 Q 236.77999999999997 225.89000000000004 234.55999999999997 227.31000000000006 Q 222.39999999999998 235.08000000000007 210.58999999999997 243.19000000000005 Q 209.77999999999997 243.74000000000007 209.74999999999997 242.76000000000005 L 208.02999999999997 193.76000000000005 C 208.01698445017723 193.40639208618938 207.8920209242138 193.08862769159666 207.67999999999998 192.87000000000006 Q 206.64 191.81000000000006 206.60999999999999 194.25000000000006 Q 206.30999999999997 218.51000000000005 205.26999999999998 242.75000000000006 Q 205.24999999999997 243.27000000000007 204.82999999999998 242.99000000000007 L 178.95 225.97000000000006 C 178.57589872889466 225.7254170034805 178.29867476301519 225.33801428193095 178.17 224.88000000000005 Q 175.72 216.28000000000006 173.70999999999998 208.45000000000005 Q 173.15999999999997 206.31000000000006 172.43999999999997 207.79000000000005 Q 172.23999999999998 208.20000000000005 172.29999999999998 208.73000000000005 Q 173.17 216.74000000000004 174.01 224.87000000000006 C 174.04976585252342 225.26844277092687 173.80928067044894 225.64160943276656 173.42999999999998 225.77000000000007 L 147.21999999999997 234.59000000000006 C 146.8440340450576 234.71719068706588 146.43094245373675 234.50842396887148 146.28999999999996 234.12000000000006 L 140.73999999999995 218.29000000000005 C 140.69815957102392 218.1685175500488 140.70677563430522 218.0356570001216 140.76376228172467 217.92358326019666 C 140.82074892914412 217.81150952027176 140.92091109744567 217.73043954808605 141.03999999999996 217.70000000000005 Q 141.89999999999998 217.47000000000006 142.72999999999996 217.16000000000005 Q 143.57999999999996 216.83000000000004 144.15999999999997 216.15000000000006 Q 147.65999999999997 211.96000000000006 146.07999999999996 207.28000000000006 Q 144.98999999999995 204.04000000000005 141.88999999999996 201.50000000000006 Q 138.89999999999995 199.06000000000006 135.17999999999995 198.38000000000005 Q 133.40999999999994 198.05000000000004 132.79999999999995 196.36000000000004 L 118.97999999999996 158.28000000000003 C 118.93824890711825 158.1642588223512 118.95046054516058 158.03563811533365 119.01354599425642 157.92667233962268 C 119.07663144335226 157.81770656391168 119.18454862078522 157.73883204419917 119.30999999999996 157.71000000000004 L 159.42999999999995 148.53000000000003 C 159.61368407256654 148.48825966937272 159.80624277308672 148.52233281992105 159.96298858207604 148.6243120209502 C 160.11973439106535 148.7262912219794 160.22703900245557 148.88730986472223 160.25999999999996 149.07000000000002 Q 163.59999999999997 166.92000000000002 168.36999999999995 184.51000000000002 C 168.4658207980378 184.86160362146086 168.66054306485512 185.14286911797475 168.90999999999994 185.29000000000002 Q 169.63999999999993 185.72000000000003 169.34999999999994 184.60000000000002 Q 169.23999999999992 184.15000000000003 169.19999999999993 183.88000000000002 Q 166.98999999999992 167.07000000000002 164.75999999999993 150.31000000000003 Q 164.65999999999994 149.60000000000002 165.31999999999994 149.89000000000004 L 204.55999999999995 167.68000000000004 C 205.10397242422172 167.93102648104932 205.48919890380427 168.4321949107975 205.58999999999995 169.02000000000004 Q 206.15999999999994 172.46000000000004 206.69999999999996 176.40000000000003 Q 206.75999999999996 176.83000000000004 206.99999999999997 177.01000000000005 Q 207.47999999999996 177.39000000000004 207.77999999999997 176.43000000000004 Q 208.99999999999997 172.53000000000003 209.68999999999997 168.84000000000003 C 209.77793323922756 168.34589155059004 210.1107717856252 167.92329878943346 210.57999999999996 167.71000000000004 L 249.40999999999997 150.02000000000004 Q 250.46999999999997 149.54000000000005 250.31999999999996 150.69000000000003 Q 248.70999999999995 163.39000000000001 246.99999999999997 175.50000000000003 Q 246.34999999999997 180.08000000000004 246.30999999999997 181.94000000000003 Q 246.29999999999998 182.59000000000003 246.77999999999997 182.27000000000004 z" stroke-linecap="round" />
</g>
<g transform="matrix(2.57 0 0 2.57 532.93 545.34)"  >
<path style="stroke: none; stroke-width: 1; stroke-dasharray: none; stroke-linecap: butt; stroke-dashoffset: 0; stroke-linejoin: miter; stroke-miterlimit: 4; fill: rgb(250,223,190); fill-rule: nonzero; opacity: 1;" vector-effect="non-scaling-stroke"  transform=" translate(-207.36, -206.19)" d="M 139.06 204.43 Q 146.91 211.89000000000001 136.5 214.75 Q 132.69 215.8 129.66 214.54 Q 126.86 213.38 125.28 210 Q 122.26 203.52 126.59 197.09 C 126.67744444519764 196.96060279814319 126.82133313509159 196.8806393754945 126.97739416483329 196.87471300727645 C 127.13345519457499 196.8687866390584 127.28299391101572 196.93760724880832 127.38000000000001 197.06 Q 131.27 202.06 136.08 202.93 Q 137.79000000000002 203.23000000000002 139.06 204.43 z M 286.81 198.17 Q 287.95 196.70999999999998 289.15 197.95999999999998 Q 289.71 198.54 290.10999999999996 199.67999999999998 Q 292.16999999999996 205.45 289.28999999999996 211.04999999999998 Q 288.31999999999994 212.93999999999997 286.65999999999997 214.05999999999997 Q 285.2 215.03999999999996 282.99999999999994 215.15999999999997 Q 278.37999999999994 215.42999999999998 274.29999999999995 212.92999999999998 Q 272.25999999999993 211.67999999999998 272.78999999999996 209.33999999999997 Q 273.52 206.08999999999997 276.02 204.22999999999996 Q 276.7 203.72999999999996 280.71 202.33999999999997 Q 283.15999999999997 201.47999999999996 285.25 199.92999999999998 Q 285.7 199.59999999999997 286.81 198.17 z" stroke-linecap="round" />
</g>
<g transform="matrix(2.57 0 0 2.57 533.38 636.61)"  >
<path style="stroke: none; stroke-width: 1; stroke-dasharray: none; stroke-linecap: butt; stroke-dashoffset: 0; stroke-linejoin: miter; stroke-miterlimit: 4; fill: rgb(133,205,212); fill-rule: nonzero; opacity: 1;" vector-effect="non-scaling-stroke"  transform=" translate(-207.55, -241.71)" d="M 190.62 245.61 Q 191.64000000000001 246.34 192.21 247.03 Q 193.12 248.14000000000001 191.71 247.86 Q 179.28 245.43 168.31 239.69000000000003 Q 166.06 238.51000000000002 168.75 237.50000000000003 L 173.94 235.56000000000003 C 174.57146827719467 235.326688289539 175.21475213237153 235.35626455874254 175.68 235.64000000000004 Q 183.6 240.56000000000003 190.62 245.61000000000004 z M 247.22 237.9 Q 248.8 238.49 247.32 239.31 Q 236.01999999999998 245.56 223.31 247.85 C 223.14130892665602 247.87951533326984 222.9692977357739 247.8556470851663 222.83873929202696 247.78460793195106 C 222.70818084828002 247.7135687787358 222.63199054936908 247.60238621621662 222.63 247.48 Q 222.63 247.13 223.06 246.81 Q 230.69 241.22 239.56 235.64000000000001 C 239.93836917825882 235.40107037119992 240.40184728962677 235.35286864761764 240.81 235.51000000000002 L 247.22 237.9 z" stroke-linecap="round" />
</g>
<g transform="matrix(2.57 0 0 2.57 535.51 758.26)"  >
<path style="stroke: none; stroke-width: 1; stroke-dasharray: none; stroke-linecap: butt; stroke-dashoffset: 0; stroke-linejoin: miter; stroke-miterlimit: 4; fill: rgb(110,61,28); fill-rule: nonzero; opacity: 1;" vector-effect="non-scaling-stroke"  transform=" translate(-208.37, -289.04)" d="M 243.19 293.57 L 239.31 293.68 C 238.9936680704333 293.6863024139433 238.70733669483172 293.51371911906017 238.58 293.24 Q 237.5 290.92 238.59 288.52 C 238.71750352472006 288.23867836000767 238.99770164620193 288.0557712529292 239.31 288.04999999999995 L 250.88 287.99999999999994 C 251.4946686892465 288.0000330829935 251.994503388321 288.499867782068 252 289.11999999999995 Q 252.08 298.47999999999996 244.77 301.35999999999996 Q 239.64000000000001 303.36999999999995 234.68 301.72999999999996 Q 229.16 299.90999999999997 227 293.74999999999994 Q 225.56 289.62999999999994 226.94 285.6499999999999 Q 228.17 282.0899999999999 231.46 279.4699999999999 Q 238.79000000000002 273.62999999999994 247.76000000000002 280.0199999999999 Q 250.59000000000003 282.0399999999999 247.77 283.36999999999995 Q 247.35000000000002 283.55999999999995 246.99 283.92999999999995 Q 245.23000000000002 285.72999999999996 242.69 283.80999999999995 Q 239.97 281.75999999999993 236.41 283.73999999999995 Q 231.51 286.46999999999997 232.69 291.09 Q 233.4 293.86999999999995 235.57999999999998 295.44 Q 238.02999999999997 297.18 241.19 296.44 Q 243.01 296.01 243.57 294.05 C 243.60187859512172 293.9334298317045 243.57640875244252 293.80864680394484 243.50139647684958 293.7138944558274 C 243.42638420125664 293.61914210771005 243.3107746973711 293.5657196450721 243.19 293.57 z M 97.99 283.55 L 98.17 286.21000000000004 C 98.19416671019918 286.47369273858055 98.46957316663332 286.68024758090615 98.81 286.69000000000005 L 106.63 287.05000000000007 C 106.9404346092159 287.06116455409955 107.18502400416607 287.3057539490497 107.17999999999999 287.6000000000001 L 107.13999999999999 291.8300000000001 C 107.13416000102546 292.12079674363196 106.87773129308293 292.35511952847594 106.55999999999999 292.36000000000007 L 98.94999999999999 292.4700000000001 C 98.42392413660423 292.47547354302355 98.00026394861449 292.88129540730847 97.99999999999999 293.3800000000001 L 97.99999999999999 301.1200000000001 C 97.99969717495078 301.3869611275557 97.90547171812054 301.64284513641866 97.73830557419542 301.8306722644244 C 97.5711394302703 302.01849939243016 97.34491229694282 302.12267447363206 97.10999999999999 302.1200000000001 L 92.54999999999998 302.0600000000001 C 92.27931617894009 302.05667533157754 92.05545856861279 301.7845347072581 92.03999999999998 301.4400000000001 Q 91.41999999999997 289.5700000000001 91.91999999999997 277.6900000000001 C 91.93076172205828 277.3945292409501 92.16044964068318 277.160424246967 92.43999999999997 277.16000000000014 L 107.05999999999997 277.16000000000014 C 107.35371260966657 277.15888119965706 107.60518199084649 277.38477742342883 107.64999999999998 277.6900000000001 Q 107.96999999999997 279.98000000000013 107.33999999999997 282.2100000000001 C 107.26387427187223 282.4721753089679 106.9978141220556 282.6576111709613 106.67999999999998 282.6700000000001 L 98.55999999999997 283.01000000000005 C 98.23053076382986 283.02860586015026 97.97587353925162 283.2698600729086 97.98999999999998 283.55000000000007 z M 117.73 294.3 L 117.26 301.14 C 117.23929569069807 301.45518639029996 117.10806894276493 301.75008965063427 116.8956875827842 301.95871204849146 C 116.68330622280347 302.1673344463486 116.40750258100216 302.27225749805433 116.13000000000001 302.25 L 111.79 301.92 C 111.48122448868087 301.89883233794035 111.24356335206997 301.6347644083727 111.25 301.32 L 111.5 277.86 C 111.50547826824828 277.3834220572554 111.89339057296108 276.99996851466574 112.37 277 Q 117.5 277 122 277.11 Q 127.54 277.25 129.62 282.3 Q 131.75 287.48 127.61 291.78000000000003 C 127.10188648255661 292.30745325270834 126.97908309330231 293.0606473734681 127.31 293.62 L 131.48 300.82 Q 132.67 302.86 133.48999999999998 300.52 L 140.95 279.39 Q 141.56 277.65 143.48999999999998 277.33 Q 147.17999999999998 276.71999999999997 148.64 278 Q 148.98 278.3 150.29999999999998 282.02 Q 153.58999999999997 291.28999999999996 157.30999999999997 301.31 C 157.3959232356152 301.5436887701771 157.35846701054575 301.8051996723744 157.2106500550347 302.0036388729235 C 157.06283309952363 302.2020780734726 156.82506980323112 302.3100399533776 156.57999999999998 302.29 L 151.67999999999998 301.87 C 151.38366109357418 301.8443337003345 151.11630221793402 301.645724249859 150.98 301.35 L 149.54 298.39000000000004 C 149.40308300276737 298.1100478668103 149.13215592396188 297.9181411859897 148.82 297.88000000000005 Q 146.75 297.6700000000001 144.66 297.72 Q 144.60999999999999 297.72 142.82999999999998 297.62 Q 140.13 297.47 139.73999999999998 300.61 Q 139.48999999999998 302.58000000000004 137.51999999999998 302.34000000000003 Q 132.14 301.70000000000005 126.52999999999999 302.06000000000006 Q 124.82 302.1700000000001 124.03999999999999 300.64000000000004 Q 122.60999999999999 297.82000000000005 120.94 295.06000000000006 Q 120.27 293.95000000000005 118.31 293.83000000000004 C 118.1645249246266 293.8184225120284 118.02078592413336 293.8618494835831 117.9115244711292 293.9503889368796 C 117.80226301812503 294.03892839017607 117.73678309739034 294.1650408892716 117.73 294.30000000000007 z M 119.06 288.22 Q 121.23 288.51000000000005 123.24000000000001 287.65000000000003 C 123.53373763390583 287.5217252365117 123.76151018200075 287.27949093933137 123.87 286.98 Q 125.66000000000001 282.25 119.5 282.75 Q 117.16 282.94 117.38 284.89 Q 117.44 285.46999999999997 117.39999999999999 286.12 Q 117.33999999999999 286.83 117.63 287.38 Q 117.99 288.08 119.06 288.21999999999997 z M 144.25 291.91 L 146.44 292.26000000000005 C 146.57827762125413 292.2790406827724 146.71473476385023 292.2198056372831 146.80039206166643 292.1035564473897 C 146.88604935948263 291.9873072574963 146.908619026815 291.83072020379694 146.85999999999999 291.69000000000005 L 145.32 287.07000000000005 Q 145.07 286.34000000000003 144.69 287.06000000000006 Q 143.72 288.9200000000001 143.76 291.2300000000001 C 143.7674291633011 291.58073226515785 143.9744997196582 291.86809548622483 144.25 291.9100000000001 z M 165.83 290.18 L 165.47 301.44 C 165.46416324086087 301.7391678023958 165.254871637365 301.9977044890672 164.96 302.07 Q 162.66 302.67 160.4 301.96999999999997 C 160.11808426483128 301.87961873627995 159.92500112361859 301.6141294171125 159.92000000000002 301.30999999999995 L 159.50000000000003 277.97999999999996 C 159.4946265730266 277.7220175670495 159.59549929371525 277.47273293948234 159.77987063708622 277.28836159611143 C 159.96424198045716 277.10399025274046 160.21658697243782 277.00005716763826 160.48000000000002 276.99999999999994 L 164.53000000000003 276.99999999999994 C 165.30623876774433 276.9999439684378 166.0073208706609 277.3713280013341 166.38000000000002 277.97999999999996 L 172.51000000000002 288.00999999999993 Q 173.67000000000002 289.91999999999996 173.76000000000002 287.7099999999999 L 174.16000000000003 277.67999999999995 C 174.1717237515787 277.35397153247465 174.40270917957773 277.09633393970654 174.68000000000004 277.09999999999997 L 179.69000000000003 277.21 C 179.96284490161787 277.21550534480724 180.18091491008815 277.4825298449749 180.18000000000004 277.81 L 179.94000000000003 301.43 C 179.93280479795638 301.7360138137358 179.7310470040567 301.99541669160675 179.45000000000002 302.06 Q 177.35000000000002 302.51 175.28000000000003 301.85 C 174.96961327505497 301.7528730306146 174.70413660674748 301.55111076270094 174.53000000000003 301.28000000000003 L 167.18000000000004 289.79 Q 165.90000000000003 287.8 165.83000000000004 290.18 z M 203.81 285.37 Q 206.61 281.9 208.37 277.78000000000003 C 208.49520456766274 277.47931368084807 208.7498045932726 277.262154835475 209.05 277.20000000000005 Q 212.06 276.55000000000007 215.03 277.36000000000007 C 215.14326219547985 277.39263866715504 215.2350494127304 277.475942249201 215.27971456463086 277.5866341473891 C 215.32437971653133 277.69732604557714 215.31713326284748 277.82353652976184 215.26 277.93000000000006 Q 211.56 284.5900000000001 208.07999999999998 291.37000000000006 Q 206.89999999999998 293.69000000000005 206.77999999999997 295.88000000000005 Q 206.64999999999998 298.08000000000004 206.79999999999998 300.65000000000003 C 206.837623816166 301.36228600657483 206.32257001137796 301.98209651742144 205.61999999999998 302.07000000000005 Q 202.84999999999997 302.43000000000006 201.26999999999998 301.88000000000005 C 200.9956203342772 301.78528284912744 200.81103553625525 301.50840565209455 200.80999999999997 301.19000000000005 Q 200.81999999999996 298.62000000000006 200.67 296.05000000000007 Q 200.54 293.5400000000001 199.33999999999997 291.2100000000001 Q 195.95999999999998 284.6500000000001 192.17999999999998 278.30000000000007 C 192.04809489460527 278.08172895634834 192.0290525850241 277.81046936940436 192.1300138597081 277.58794247826415 C 192.23097513439208 277.36541558712395 192.4366838206987 277.22524724169347 192.67 277.2200000000001 L 197.38 277.0400000000001 C 198.18146860850175 277.0162368546607 199.01726165702405 277.5993482838623 199.53 278.5400000000001 L 203.22 285.3400000000001 C 203.27801545122614 285.44168457444266 203.38402806641517 285.5063677874756 203.502545472473 285.5123940962582 C 203.62106287853086 285.51842040504084 203.73642150816863 285.464993356999 203.81 285.37000000000006 z M 268.26 297.6 Q 266.11 298.02000000000004 264.75 297.75 Q 261.15 297.05 260.58 300.08 Q 260.26 301.76 258.58 302.03 Q 255.80999999999997 302.48999999999995 254.20999999999998 301.94 C 254.08325029660503 301.8969018370965 253.98013802858785 301.80173195822067 253.9237501332794 301.67579899203184 C 253.86736223797098 301.54986602584296 253.8624091966151 301.40369004711897 253.90999999999997 301.27 L 262.17999999999995 278.03 C 262.4006480061741 277.4115722688798 262.9974333541621 276.9990293773176 263.66999999999996 277 L 268.44999999999993 277 C 268.9124362413587 276.9992669420097 269.3241070410105 277.2830400174978 269.4799999999999 277.71 L 277.94999999999993 301.35999999999996 C 278.01841219059486 301.5549912232804 277.99303216580176 301.7709241381963 277.8818695296805 301.9396531394518 C 277.77070689355924 302.10838214070736 277.58747520882673 302.20909199917844 277.38999999999993 302.21 L 273.2699999999999 302.21999999999997 C 272.2948581733958 302.22727304533595 271.44684390069807 301.513597667323 271.24999999999994 300.52 Q 270.85999999999996 298.54999999999995 269.2099999999999 297.71 C 268.94405127845914 297.5742557740924 268.6090232455655 297.5354630544942 268.25999999999993 297.59999999999997 z M 266.255 292.68300000000005 C 267.24821329008273 292.5699026391138 267.92112805916696 291.3171976997274 267.758 289.88500000000005 C 267.6795836832155 289.19724088715003 267.4149126244148 288.5592696931756 267.0222114421858 288.1114328148743 C 266.62951025995676 287.663595936573 266.1409469945175 287.4425778438783 265.664 287.49700000000007 C 264.6712313318957 287.61084282861395 263.99888705138807 288.8633190582146 264.162 290.2950000000001 C 264.24041631678443 290.9827591128501 264.50508737558516 291.6207303068245 264.8977885578142 292.0685671851258 C 265.2904897400432 292.5164040634271 265.77905300548247 292.7374221561218 266.256 292.68300000000005 z M 280.98 300.01 Q 280.44 288.84999999999997 280.92 277.69 C 280.92994312735857 277.40533578968825 281.15557680049596 277.175363007452 281.44 277.16 Q 288.3 276.74 291.25 277 Q 300.83 277.86 298.79 286.87 Q 298.48 288.24 298.75 289.12 Q 298.97 289.88 299.35 290.58 Q 299.81 291.44 299.93 292.02 Q 301.15000000000003 297.85999999999996 297.08 300.54999999999995 Q 294.90999999999997 301.97999999999996 290.08 302.05999999999995 Q 285.7 302.12999999999994 281.32 302.17999999999995 C 281.00317136634914 302.18380068940826 280.7404049148809 301.9692080873759 280.71999999999997 301.68999999999994 Q 280.7 301.30999999999995 280.80999999999995 300.94999999999993 Q 280.98999999999995 300.3399999999999 280.97999999999996 300.00999999999993 z M 293.49 284.08 C 293.49 283.3785983677149 292.9214016322851 282.81 292.22 282.81 L 288.04 282.81 C 287.33859836771495 282.81 286.77000000000004 283.3785983677149 286.77000000000004 284.08 L 286.77000000000004 285.21999999999997 C 286.77000000000004 285.92140163228504 287.33859836771495 286.48999999999995 288.04 286.48999999999995 L 292.22 286.48999999999995 C 292.9214016322851 286.48999999999995 293.49 285.92140163228504 293.49 285.21999999999997 L 293.49 284.08 z M 294.33 293.07 C 294.33 292.7888705207701 294.21832174921263 292.51925537309717 294.0195331880577 292.32046681194225 C 293.8207446269028 292.12167825078734 293.55112947922987 292.01 293.27 292.01 L 288.01 292.01 C 287.7288705207701 292.01 287.45925537309716 292.12167825078734 287.26046681194225 292.32046681194225 C 287.06167825078734 292.51925537309717 286.95 292.7888705207701 286.95 293.07 L 286.95 295.17 C 286.95 295.4511294792299 287.06167825078734 295.72074462690284 287.26046681194225 295.91953318805776 C 287.45925537309716 296.11832174921267 287.7288705207701 296.23 288.01 296.23 L 293.27 296.23 C 293.55112947922987 296.23 293.8207446269028 296.11832174921267 294.0195331880577 295.91953318805776 C 294.21832174921263 295.72074462690284 294.33 295.4511294792299 294.33 295.17 L 294.33 293.07 z M 312.8 285.89 Q 313.12 286.51 313.43 285.95 L 317.82 278.11 C 318.18003384890653 277.4621403366408 318.76403756835685 277.0650178074146 319.32 277.09000000000003 L 324.88 277.34000000000003 C 324.9958318727664 277.3471927232771 325.09657271105453 277.419041168435 325.1456478660353 277.52946026714164 C 325.19472302101605 277.63987936584834 325.1849966582063 277.77281349051685 325.12 277.88000000000005 Q 321.18 284.52000000000004 317.68 290.99000000000007 Q 315.61 294.82000000000005 316.40000000000003 300.31000000000006 C 316.4685645038909 300.77935393801835 316.3240376354477 301.2548897970107 316.00542843899115 301.60825636035344 C 315.68681924253457 301.96162292369615 315.2269707415986 302.15639429256066 314.75000000000006 302.14000000000004 L 312.2200000000001 302.05000000000007 Q 309.7300000000001 301.9600000000001 310.0700000000001 299.50000000000006 Q 310.8300000000001 294.08000000000004 308.6900000000001 290.56000000000006 Q 307.4500000000001 288.55000000000007 301.8000000000001 278.01000000000005 C 301.7406651796136 277.89405477399623 301.73203453169083 277.7590166668193 301.77643309035324 277.64126396775816 C 301.82083164901564 277.52351126869695 301.9136926458464 277.4351558418135 302.03000000000014 277.40000000000003 Q 304.92000000000013 276.49 307.84000000000015 277.3 C 308.17690767561857 277.38935109960755 308.44658271738246 277.5897852522699 308.58000000000015 277.85 L 312.8000000000002 285.89000000000004 z" stroke-linecap="round" />
</g>
<g transform="matrix(2.57 0 0 2.57 311.22 749.06)"  >
<path style="stroke: none; stroke-width: 1; stroke-dasharray: none; stroke-linecap: butt; stroke-dashoffset: 0; stroke-linejoin: miter; stroke-miterlimit: 4; fill: rgb(250,244,240); fill-rule: nonzero; opacity: 1;" vector-effect="non-scaling-stroke"  transform=" translate(-121.1, -285.46)" d="M 117.63 287.38 Q 117.33999999999999 286.83 117.39999999999999 286.12 Q 117.44 285.47 117.38 284.89 Q 117.16 282.94 119.5 282.75 Q 125.66 282.25 123.87 286.98 C 123.76151018200075 287.27949093933137 123.53373763390583 287.5217252365117 123.24000000000001 287.65000000000003 Q 121.23 288.51000000000005 119.06 288.22 Q 117.99000000000001 288.08000000000004 117.63 287.38000000000005 z" stroke-linecap="round" />
</g>
<g transform="matrix(2.57 0 0 2.57 745.63 746.98)"  >
<rect style="stroke: none; stroke-width: 1; stroke-dasharray: none; stroke-linecap: butt; stroke-dashoffset: 0; stroke-linejoin: miter; stroke-miterlimit: 4; fill: rgb(250,244,240); fill-rule: nonzero; opacity: 1;" vector-effect="non-scaling-stroke"  x="-3.36" y="-1.84" rx="1.27" ry="1.27" width="6.72" height="3.68" />
</g>
<g transform="matrix(2.57 0 0 2.57 373.47 759.17)"  >
<path style="stroke: none; stroke-width: 1; stroke-dasharray: none; stroke-linecap: butt; stroke-dashoffset: 0; stroke-linejoin: miter; stroke-miterlimit: 4; fill: rgb(250,244,240); fill-rule: nonzero; opacity: 1;" vector-effect="non-scaling-stroke"  transform=" translate(-145.32, -289.39)" d="M 144.25 291.91 C 143.9744997196582 291.8680954862248 143.7674291633011 291.5807322651578 143.76 291.23 Q 143.72 288.92 144.69 287.06 Q 145.07 286.34 145.32 287.07 L 146.85999999999999 291.69 C 146.908619026815 291.8307202037969 146.88604935948263 291.98730725749624 146.80039206166643 292.1035564473896 C 146.71473476385023 292.21980563728306 146.57827762125413 292.27904068277235 146.44 292.26 L 144.25 291.90999999999997 z" stroke-linecap="round" />
</g>
<g transform="matrix(2.57 0 0 2.57 746.94 771.32)"  >
<rect style="stroke: none; stroke-width: 1; stroke-dasharray: none; stroke-linecap: butt; stroke-dashoffset: 0; stroke-linejoin: miter; stroke-miterlimit: 4; fill: rgb(250,244,240); fill-rule: nonzero; opacity: 1;" vector-effect="non-scaling-stroke"  x="-3.69" y="-2.11" rx="1.06" ry="1.06" width="7.38" height="4.22" />
</g>
<g transform="matrix(2.57 0 0 2.57 438.21 883.11)"  >
<path style="stroke: none; stroke-width: 1; stroke-dasharray: none; stroke-linecap: butt; stroke-dashoffset: 0; stroke-linejoin: miter; stroke-miterlimit: 4; fill: rgb(110,61,28); fill-rule: nonzero; opacity: 1;" vector-effect="non-scaling-stroke"  transform=" translate(-170.51, -337.62)" d="M 139.14 332.04 Q 138.79 333.26000000000005 139.5 334.29 C 139.65659289844052 334.5284237300791 139.95971240904353 334.67811237729046 140.31 334.69 L 147.06 334.9 C 147.3658867192484 334.9108753536537 147.63064888604103 335.111452752739 147.72 335.4 Q 148.41 337.65999999999997 147.82 339.96 C 147.74792817138783 340.2427663466066 147.49036964535463 340.44308964463244 147.19 340.45 Q 144.9 340.53 142.6 340.51 Q 142.48999999999998 340.51 141.42 340.4 Q 138.88 340.15 139.33999999999997 343.71999999999997 C 139.41491717863872 344.29670950640815 139.93071958259267 344.73640991633613 140.55999999999997 344.76 L 148.83999999999997 345.06 C 149.06827763962175 345.0654728819365 149.25038894408007 345.26535114292733 149.24999999999997 345.51 L 149.24999999999997 349.57 C 149.24999999999997 350.08362481734264 148.8381019698443 350.5 148.32999999999998 350.5 L 133.57 350.44 C 133.414423873388 350.440118788314 133.26536087396403 350.3755762246219 133.15629739613271 350.26087153242 C 133.04723391830143 350.1461668402181 132.98731457423102 349.9909176288558 132.98999999999998 349.83 L 133.17 326.02 C 133.17 325.82108763262033 133.24480335665945 325.6303221979461 133.37795418535754 325.4896699141101 C 133.51110501405566 325.34901763027403 133.69169629221392 325.27 133.88 325.27 L 148.06 325.40999999999997 C 148.39387548877286 325.4147076849282 148.6635613620719 325.6446038392159 148.67000000000002 325.92999999999995 L 148.77 330.44999999999993 C 148.77687873203735 330.68808017109734 148.52424970460737 330.89195622832153 148.20000000000002 330.9099999999999 L 139.8 331.4699999999999 C 139.49338772795494 331.49345115930345 139.22969406758972 331.7211865932552 139.14000000000001 332.0399999999999 z M 167.15 336.67 L 167.05 326.31 C 167.04262235298782 326.01471096978094 167.23754424422458 325.7466933693304 167.53 325.65 Q 170.07 324.84 172.7 325.44 C 172.98037718218717 325.505048331855 173.17915282438182 325.7576590438107 173.17999999999998 326.05 L 172.99999999999997 349.31 C 172.99999999999997 349.8678075973291 172.61048773235277 350.32 172.12999999999997 350.32 L 168.28999999999996 350.33 C 168.05550311020505 350.3283979862788 167.77103473337496 350.11312462002894 167.54999999999995 349.77 L 159.43999999999994 337.45 Q 158.44999999999993 335.94 158.48999999999995 337.76 L 158.75999999999996 349.58 C 158.7653842509236 349.82210438677095 158.6718917239064 350.05616209205436 158.50064652428279 350.2292891070585 C 158.3294013246592 350.40241612206256 158.09485429350045 350.5000028052647 157.84999999999997 350.5 L 153.48999999999995 350.5 C 153.2274356750588 350.5 152.97562530128883 350.3956967280382 152.78996428662526 350.2100357133747 C 152.6043032719617 350.02437469871114 152.49999999999994 349.77256432494113 152.49999999999994 349.51 L 152.49999999999994 326.5 C 152.50046958202913 326.1872821067223 152.6750740862105 325.90403479993915 152.94999999999993 325.77 Q 155.76999999999992 324.43 158.07999999999993 325.60999999999996 Q 159.45999999999992 326.31999999999994 161.14999999999992 329.09 Q 163.5999999999999 333.10999999999996 166.3199999999999 336.95 Q 167.1699999999999 338.14 167.14999999999992 336.67 z M 196.91 340.28 Q 200.65 329.07 201.5 326.75 Q 202.17 324.92 204.17 325.06 Q 204.86999999999998 325.11 206.33999999999997 325.14 Q 208.31999999999996 325.18 207.55999999999997 327.56 Q 204.08999999999997 338.49 200.14 349.82 C 199.99563102477524 350.2280472164284 199.6068344861219 350.50060561465966 199.17 350.5 L 194.19 350.5 C 193.48002798929633 350.50015847687524 192.84775747702224 350.0410575953514 192.62 349.36 L 184.99 326.47 C 184.94304546153043 326.3294663133342 184.954779521057 326.1759320261009 185.02254492558964 326.04416596173184 C 185.0903103301223 325.9123998973628 185.20837412242736 325.8135494727013 185.35000000000002 325.77000000000004 Q 188.48000000000002 324.82000000000005 190.78000000000003 325.58000000000004 C 191.04398615169413 325.6606256244061 191.27087547836283 325.9023929397089 191.39000000000004 326.23 L 196.55000000000004 340.29 Q 196.73000000000005 340.8 196.91000000000005 340.28000000000003 z" stroke-linecap="round" />
</g>
<g transform="matrix(2.57 0.01 -0.01 2.57 549.32 883.87)"  >
<rect style="stroke: none; stroke-width: 1; stroke-dasharray: none; stroke-linecap: butt; stroke-dashoffset: 0; stroke-linejoin: miter; stroke-miterlimit: 4; fill: rgb(110,61,28); fill-rule: nonzero; opacity: 1;" vector-effect="non-scaling-stroke"  x="-3.17" y="-12.6" rx="0.98" ry="0.98" width="6.34" height="25.2" />
</g>
<g transform="matrix(2.57 0 0 2.57 645.06 884.11)"  >
<path style="stroke: none; stroke-width: 1; stroke-dasharray: none; stroke-linecap: butt; stroke-dashoffset: 0; stroke-linejoin: miter; stroke-miterlimit: 4; fill: rgb(110,61,28); fill-rule: nonzero; opacity: 1;" vector-effect="non-scaling-stroke"  transform=" translate(-251, -338.01)" d="M 234.94 346.28 L 227.44 346.39 C 227.09863169607007 346.3954857944882 226.80098833458817 346.57955471540464 226.68 346.86 L 225.33 349.97 C 225.20251695380878 350.26163812147183 224.94676272270732 350.4505027844391 224.68 350.45000000000005 L 219.38 350.50000000000006 C 219.23030576995515 350.5042496714581 219.08888189019333 350.4322726647302 219.00266201837798 350.30795564025226 C 218.91644214656264 350.1836386157743 218.8967047564301 350.0232435589336 218.95 349.88000000000005 L 227.63 326.28000000000003 C 227.73655768478721 325.9779583342201 227.97634267508394 325.74186234377413 228.28 325.64000000000004 Q 231.11 324.67 233.97 325.64000000000004 C 234.26124243419798 325.74114546213326 234.49542777132248 325.9716716533652 234.60999999999999 326.27000000000004 L 243.45 349.80000000000007 C 243.50623232667579 349.94723854115256 243.48972898491786 350.11266134783136 243.40585797988047 350.2424617127702 C 243.32198697484307 350.372262077709 243.181465252511 350.4498542511695 243.03 350.45000000000005 L 238.29 350.48 C 237.520241795996 350.48481764930676 236.75796257898742 349.80723612307696 236.4 348.8 L 235.67000000000002 346.76 C 235.56689218173838 346.4715598875859 235.2743093263691 346.2791766402198 234.94000000000003 346.28 z M 230.45 336.15 L 229.39 339.60999999999996 C 229.34195786624534 339.7740466809058 229.36436566670383 339.9507326844851 229.450614509634 340.0879467527831 C 229.53686335256415 340.2251608210811 229.6771135074578 340.30724883738014 229.82999999999998 340.30999999999995 L 232.76 340.3999999999999 C 232.8905706599013 340.404136967557 233.00967139411995 340.3309289271374 233.0778272964403 340.20464004930847 C 233.14598319876066 340.07835117147954 233.15429206745492 339.91547671238413 233.1 339.7699999999999 L 231.78 336.0999999999999 Q 231.07 334.1299999999999 230.45 336.1499999999999 z M 254.75 345.29 Q 256.5 344.63 256.5 342.76000000000005 L 256.5 325.97 C 256.4992478806892 325.675715793901 256.699366518685 325.435573428306 256.95 325.43 L 261.82 325.36 C 262.0917919654356 325.35631549543854 262.31831027931025 325.60948302271015 262.33 325.93 Q 262.62 333.36 262.51 340.8 Q 262.45 345.1 260.98 347.24 Q 258.26 351.21000000000004 252.50000000000003 351.07 Q 247.58000000000004 350.95 245.69000000000003 346.71 C 245.56321558233648 346.4262351846056 245.61867860518223 346.09741869201997 245.83 345.88 Q 247.22 344.4 249.19000000000003 343.92 C 249.48561422671477 343.84536426453906 249.80865198833246 343.92333889665366 250.06000000000003 344.13 Q 252.53000000000003 346.13 254.75000000000003 345.29 z M 273.56 344.47 L 282.56 345.14000000000004 C 282.8590596937015 345.1622634895995 283.0859181885445 345.40691480756743 283.07 345.69000000000005 L 282.87 349.81000000000006 C 282.85428417156453 350.1036828248928 282.6140633335733 350.3351683596843 282.32 350.34000000000003 L 267.57 350.45000000000005 C 267.43660252472506 350.4528063611094 267.30785206634283 350.3999828167166 267.21348689109146 350.30373033796025 C 267.11912171584015 350.2074778592039 267.06730313599485 350.07612098460453 267.07 349.94000000000005 L 267.26 326.14000000000004 C 267.2654797443659 325.6468533664571 267.666822923438 325.2499695560414 268.15999999999997 325.25000000000006 L 279.83 325.25000000000006 Q 279.90999999999997 325.25000000000006 281.16999999999996 325.14000000000004 Q 282.84 325.00000000000006 282.86999999999995 326.48 Q 282.90999999999997 328.26 282.93999999999994 328.5 Q 283.03999999999996 329.48 282.81999999999994 330.45 C 282.7554462505435 330.7336594451431 282.49265995136227 330.9389612413784 282.17999999999995 330.95 L 274.05999999999995 331.28999999999996 C 273.74016165319114 331.30200119490655 273.4565397813523 331.47830668280636 273.31999999999994 331.74999999999994 Q 271.93999999999994 334.4599999999999 275.25999999999993 334.61999999999995 Q 277.99999999999994 334.74999999999994 281.0899999999999 334.74999999999994 C 281.3313470057539 334.74999999999994 281.562809066492 334.8458747247325 281.7334671708797 335.0165328291202 C 281.9041252752674 335.1871909335079 281.99999999999994 335.418652994246 281.99999999999994 335.65999999999997 L 281.99999999999994 339.45 C 281.9984848261602 340.0514345060727 281.4708120962491 340.543633439015 280.80999999999995 340.56 L 274.04999999999995 340.74 C 273.73327727189945 340.7467521663295 273.46963385190554 340.9806293937434 273.42999999999995 341.29 L 273.05999999999995 343.94 C 273.04441683483464 344.06838041419473 273.0892018306802 344.19796797607967 273.18381130009834 344.29825401366287 C 273.27842076951646 344.39854005124613 273.41449566210594 344.4606639711023 273.55999999999995 344.46999999999997 z" stroke-linecap="round" />
</g>
<g transform="matrix(2.57 0 0 2.57 594.33 882.85)"  >
<path style="stroke: none; stroke-width: 1; stroke-dasharray: none; stroke-linecap: butt; stroke-dashoffset: 0; stroke-linejoin: miter; stroke-miterlimit: 4; fill: rgb(244,240,223); fill-rule: nonzero; opacity: 1;" vector-effect="non-scaling-stroke"  transform=" translate(-231.25, -337.51)" d="M 230.45 336.15 Q 231.07 334.13 231.78 336.09999999999997 L 233.1 339.77 C 233.15429206745492 339.9154767123842 233.14598319876066 340.0783511714796 233.0778272964403 340.2046400493085 C 233.00967139411995 340.33092892713745 232.8905706599013 340.40413696755706 232.76 340.4 L 229.82999999999998 340.31 C 229.6771135074578 340.3072488373802 229.53686335256415 340.22516082108115 229.450614509634 340.0879467527832 C 229.36436566670383 339.95073268448516 229.34195786624534 339.7740466809059 229.39 339.61 L 230.45 336.15000000000003 z" stroke-linecap="round" />
</g>
</svg>